<?xml version="1.0" encoding="UTF-8"?>
<!-- Generator: visioncortex VTracer 0.6.1 -->
<svg version="1.1" xmlns="http://www.w3.org/2000/svg" width="1280" height="550">
<path d="M0 0 C3.35294662 0.01375059 6.70475421 0.00678568 10.05761719 -0.02050781 C63.18213234 -0.45189019 63.18213234 -0.45189019 82.50024414 7.57641602 C85.21613115 8.62350498 87.72268245 9.12474901 90.59399414 9.57641602 C94.3750847 10.17119431 97.56707759 11.09884745 101.09399414 12.57641602 C102.56755089 13.03245415 104.04707737 13.46957471 105.53149414 13.88891602 C119.26285481 17.98211164 132.113212 23.56912213 145.09399414 29.57641602 C145.09399414 30.23641602 145.09399414 30.89641602 145.09399414 31.57641602 C145.83335205 31.6932373 146.57270996 31.81005859 147.33447266 31.93041992 C150.09708836 32.57714036 151.85948084 33.41339938 154.24633789 34.91235352 C155.01558594 35.39365723 155.78483398 35.87496094 156.57739258 36.37084961 C157.38724609 36.89243652 158.19709961 37.41402344 159.03149414 37.95141602 C159.87615234 38.49233887 160.72081055 39.03326172 161.59106445 39.59057617 C178.8543404 50.79960358 194.50295518 64.24546449 207.09399414 80.57641602 C207.7552832 81.34856445 208.41657227 82.12071289 209.09790039 82.91625977 C214.81802777 89.64384598 218.99272009 97.00871579 223.12915039 104.76831055 C223.92652708 106.26258478 224.74224306 107.74705701 225.56274414 109.22875977 C235.62663 128.09854575 241.16412111 151.43173808 241.29711914 172.74829102 C241.30413345 173.50417511 241.31114777 174.2600592 241.31837463 175.03884888 C241.33579648 177.46809919 241.34222835 179.89710549 241.34399414 182.32641602 C241.34500626 183.5736142 241.34500626 183.5736142 241.34603882 184.8460083 C241.33103144 196.48135195 241.00968704 207.78410934 238.59448242 219.20825195 C238.03442419 221.85828357 237.53213093 224.5168409 237.02758789 227.17797852 C230.38334791 261.02163583 215.4874306 294.10418945 196.09399414 322.57641602 C195.46493164 323.52387695 194.83586914 324.47133789 194.18774414 325.44750977 C190.6141027 330.72741853 190.6141027 330.72741853 189.09399414 332.57641602 C188.43399414 332.57641602 187.77399414 332.57641602 187.09399414 332.57641602 C187.00891602 333.29958008 186.92383789 334.02274414 186.83618164 334.76782227 C185.93440035 338.18035253 184.52489681 339.85104976 182.21899414 342.51391602 C181.40430664 343.47297852 180.58961914 344.43204102 179.75024414 345.42016602 C179.31583008 345.93063477 178.88141602 346.44110352 178.43383789 346.96704102 C176.59207385 349.1793057 174.8420622 351.45728634 173.08666992 353.73828125 C168.20477164 360.07638304 163.06128005 366.05139845 157.59790039 371.89282227 C153.81680597 375.94525888 150.1366495 380.09064495 146.61743164 384.37329102 C143.415549 388.24294598 139.99020436 391.50872406 136.16430664 394.76000977 C134.04527231 396.61916253 132.06951797 398.56603 130.09399414 400.57641602 C126.9194671 403.79417591 123.63202699 406.80078897 120.20336914 409.74438477 C117.91769868 411.72953189 115.69698036 413.77681432 113.46899414 415.82641602 C107.82071461 420.92111225 101.86806687 425.57904784 95.84790039 430.22094727 C94.19471063 431.49857944 92.54952278 432.78575761 90.90649414 434.07641602 C82.18210453 440.88143991 73.19435964 447.28496836 64.09399414 453.57641602 C63.46912109 454.00857422 62.84424805 454.44073242 62.20043945 454.88598633 C52.48098282 461.57641602 52.48098282 461.57641602 50.09399414 461.57641602 C50.09399414 462.89641602 50.09399414 464.21641602 50.09399414 465.57641602 C48.85649414 465.65891602 47.61899414 465.74141602 46.34399414 465.82641602 C42.27478215 466.3261438 40.82852544 467.47728054 38.09399414 470.57641602 C36.12646586 471.63888129 34.12811836 472.64779409 32.09399414 473.57641602 C31.43399414 473.90641602 30.77399414 474.23641602 30.09399414 474.57641602 C30.42399414 475.56641602 30.75399414 476.55641602 31.09399414 477.57641602 C31.64863768 485.7787406 31.70246459 494.01793264 28.09399414 501.57641602 C26.60571289 503.22485352 26.60571289 503.22485352 25.09399414 504.57641602 C24.16586914 505.53547852 24.16586914 505.53547852 23.21899414 506.51391602 C17.00044654 512.54956516 13.5147861 513.70928811 4.92211914 513.67407227 C4.23970154 513.67265732 3.55728394 513.67124237 2.85418701 513.66978455 C0.6840773 513.66420686 -1.48592756 513.65165855 -3.65600586 513.63891602 C-5.13126478 513.63389813 -6.60652533 513.62933573 -8.08178711 513.62524414 C-11.68989384 513.61424476 -15.29793961 513.59699554 -18.90600586 513.57641602 C-18.90600586 509.61641602 -18.90600586 505.65641602 -18.90600586 501.57641602 C-25.37714832 503.63157282 -31.51728872 506.07326154 -37.71850586 508.82641602 C-47.09448223 512.90908818 -56.56364958 516.44462233 -66.2590332 519.6862793 C-69.03926159 520.6212279 -71.81055859 521.57998547 -74.58178711 522.54125977 C-94.18653634 529.28389142 -114.15369137 534.9196924 -134.47192383 539.07739258 C-136.20400603 539.43249549 -137.93466585 539.79456696 -139.66430664 540.16137695 C-153.07405301 542.99308422 -166.49291848 545.18421527 -180.09350586 546.82641602 C-180.77430206 546.90931885 -181.45509827 546.99222168 -182.15652466 547.07763672 C-199.35426112 549.14855608 -216.35386483 549.81473571 -233.65600586 549.82641602 C-234.69580597 549.8274231 -235.73560608 549.82843018 -236.80691528 549.82946777 C-253.05571182 549.81884918 -268.82806984 549.07563287 -284.90600586 546.57641602 C-286.91888885 546.2941812 -288.93191112 546.01293799 -290.94506836 545.73266602 C-311.81731134 542.68008362 -332.22364461 537.14490569 -351.90600586 529.57641602 C-352.88311523 529.21418945 -353.86022461 528.85196289 -354.86694336 528.47875977 C-367.30031856 523.62034004 -379.96138169 517.25210128 -390.90600586 509.57641602 C-391.29788086 510.22481445 -391.68975586 510.87321289 -392.09350586 511.54125977 C-393.90600586 513.57641602 -393.90600586 513.57641602 -396.28100586 514.14282227 C-403.35011912 514.13230275 -403.35011912 514.13230275 -405.84350586 511.63891602 C-406.36944336 510.12297852 -406.36944336 510.12297852 -406.90600586 508.57641602 C-407.15608398 507.87516602 -407.40616211 507.17391602 -407.66381836 506.45141602 C-408.83626317 503.08206006 -409.86973653 499.71372132 -410.78100586 496.26391602 C-411.93891516 492.89533655 -411.93891516 492.89533655 -416.90600586 489.57641602 C-416.90600586 497.49641602 -416.90600586 505.41641602 -416.90600586 513.57641602 C-421.19600586 513.57641602 -425.48600586 513.57641602 -429.90600586 513.57641602 C-431.4880158 510.41239612 -430.91509566 507.02762054 -430.83569336 503.56079102 C-430.82477237 501.89935021 -430.81707119 500.23788574 -430.81225586 498.57641602 C-430.80446966 495.96804024 -430.7821748 493.36533143 -430.70385742 490.75805664 C-430.36841626 478.80164703 -431.74350535 471.51766298 -440.07543945 462.67089844 C-440.54865631 462.17551575 -441.02187317 461.68013306 -441.50942993 461.16973877 C-450.70651007 450.67699236 -457.90993319 434.90991086 -461.30053711 421.52954102 C-461.89489538 419.28600344 -461.89489538 419.28600344 -463.90600586 416.57641602 C-465.99619782 409.35575289 -467.27206935 402.05686687 -467.90600586 394.57641602 C-468.23600586 394.57641602 -468.56600586 394.57641602 -468.90600586 394.57641602 C-469.92633807 389.49111301 -470.08273592 384.59856585 -470.10913086 379.43579102 C-470.11483093 378.55473694 -470.12053101 377.67368286 -470.12640381 376.76593018 C-470.13582689 374.90003649 -470.14237706 373.03412637 -470.14624023 371.16821289 C-470.15583244 368.37688066 -470.18683317 365.58632218 -470.21850586 362.79516602 C-470.28806698 351.06812506 -469.26102643 340.06038416 -466.90600586 328.57641602 C-466.70716797 327.57094727 -466.50833008 326.56547852 -466.3034668 325.52954102 C-465.79572516 323.07468852 -465.24293607 320.63843573 -464.65600586 318.20141602 C-464.45273682 317.34781494 -464.24946777 316.49421387 -464.04003906 315.61474609 C-461.66609128 306.04096258 -458.34759172 296.81018096 -454.90600586 287.57641602 C-454.24600586 287.57641602 -453.58600586 287.57641602 -452.90600586 287.57641602 C-452.81834961 286.44333008 -452.73069336 285.31024414 -452.64038086 284.14282227 C-452.00822145 279.17383132 -450.2547187 275.03039351 -448.15600586 270.51391602 C-447.76622559 269.66192627 -447.37644531 268.80993652 -446.97485352 267.93212891 C-434.83714152 242.01349593 -418.87382576 217.79887362 -400.90600586 195.57641602 C-400.13385742 194.60961914 -399.36170898 193.64282227 -398.56616211 192.64672852 C-394.05042997 187.0437287 -389.34366172 181.66296941 -384.46069336 176.37719727 C-382.49783655 174.22525792 -380.58947224 172.04962794 -378.69116211 169.84204102 C-374.4891844 165.0257623 -369.99725729 160.52108483 -365.46850586 156.01391602 C-364.6609082 155.20245117 -363.85331055 154.39098633 -363.02124023 153.55493164 C-358.14470306 148.68625351 -353.13630998 144.06002047 -347.90600586 139.57641602 C-346.74934968 138.55490954 -345.5943583 137.53151444 -344.44116211 136.50610352 C-335.92371251 128.99013348 -327.11643073 121.97415465 -318.0246582 115.16723633 C-315.94171295 113.60322719 -313.86991045 112.02551125 -311.80053711 110.44360352 C-303.06262261 103.78599376 -294.14040236 97.52470844 -284.90600586 91.57641602 C-284.1804248 91.1073584 -283.45484375 90.63830078 -282.70727539 90.1550293 C-263.66012406 77.87659997 -244.08983993 66.8732357 -223.90600586 56.57641602 C-222.70258545 55.9622583 -222.70258545 55.9622583 -221.47485352 55.33569336 C-192.38343549 40.53633474 -160.76406657 27.63227043 -129.16430664 19.19067383 C-126.55753728 18.48163256 -123.96524824 17.72788221 -121.37084961 16.97485352 C-108.76220222 13.37539661 -96.07496327 10.43219809 -83.21850586 7.88891602 C-82.53436615 7.75052307 -81.85022644 7.61213013 -81.14535522 7.46954346 C-75.75054925 6.38645327 -70.33819533 5.45167717 -64.90600586 4.57641602 C-63.848461 4.40342987 -62.79091614 4.23044373 -61.70132446 4.05221558 C-41.09396117 0.77817557 -20.84196615 -0.08829561 0 0 Z M-33.90600586 1.57641602 C-33.90600586 1.90641602 -33.90600586 2.23641602 -33.90600586 2.57641602 C-32.25600586 2.57641602 -30.60600586 2.57641602 -28.90600586 2.57641602 C-28.90600586 2.24641602 -28.90600586 1.91641602 -28.90600586 1.57641602 C-30.55600586 1.57641602 -32.20600586 1.57641602 -33.90600586 1.57641602 Z M39.09399414 1.57641602 C39.09399414 1.90641602 39.09399414 2.23641602 39.09399414 2.57641602 C40.74399414 2.57641602 42.39399414 2.57641602 44.09399414 2.57641602 C44.09399414 2.24641602 44.09399414 1.91641602 44.09399414 1.57641602 C42.44399414 1.57641602 40.79399414 1.57641602 39.09399414 1.57641602 Z M-461.90600586 310.57641602 C-460.90600586 312.57641602 -460.90600586 312.57641602 -460.90600586 312.57641602 Z M-462.90600586 314.57641602 C-461.90600586 316.57641602 -461.90600586 316.57641602 -461.90600586 316.57641602 Z M186.09399414 329.57641602 C187.09399414 332.57641602 187.09399414 332.57641602 187.09399414 332.57641602 Z M-467.90600586 339.57641602 C-466.90600586 343.57641602 -466.90600586 343.57641602 -466.90600586 343.57641602 Z M-468.90600586 346.57641602 C-468.90600586 348.88641602 -468.90600586 351.19641602 -468.90600586 353.57641602 C-468.57600586 353.57641602 -468.24600586 353.57641602 -467.90600586 353.57641602 C-467.90600586 351.26641602 -467.90600586 348.95641602 -467.90600586 346.57641602 C-468.23600586 346.57641602 -468.56600586 346.57641602 -468.90600586 346.57641602 Z M-468.90600586 381.57641602 C-468.90600586 383.55641602 -468.90600586 385.53641602 -468.90600586 387.57641602 C-468.57600586 387.57641602 -468.24600586 387.57641602 -467.90600586 387.57641602 C-467.90600586 385.59641602 -467.90600586 383.61641602 -467.90600586 381.57641602 C-468.23600586 381.57641602 -468.56600586 381.57641602 -468.90600586 381.57641602 Z M140.09399414 385.57641602 C141.09399414 387.57641602 141.09399414 387.57641602 141.09399414 387.57641602 Z M49.09399414 458.57641602 C50.09399414 461.57641602 50.09399414 461.57641602 50.09399414 461.57641602 Z M11.15258789 484.54516602 C10.40428711 484.9512207 9.65598633 485.35727539 8.88500977 485.77563477 C8.10834961 486.20489258 7.33168945 486.63415039 6.53149414 487.07641602 C4.99055581 487.92386848 3.44767432 488.76780022 1.90258789 489.60766602 C1.21994873 489.9847168 0.53730957 490.36176758 -0.16601562 490.75024414 C-1.90600586 491.57641602 -1.90600586 491.57641602 -3.90600586 491.57641602 C-3.90600586 492.23641602 -3.90600586 492.89641602 -3.90600586 493.57641602 C-4.56600586 493.57641602 -5.22600586 493.57641602 -5.90600586 493.57641602 C-6.23600586 492.58641602 -6.56600586 491.59641602 -6.90600586 490.57641602 C-6.90600586 494.20641602 -6.90600586 497.83641602 -6.90600586 501.57641602 C-4.50986459 501.63066827 -2.11496733 501.67020628 0.28149414 501.70141602 C0.9550293 501.71817383 1.62856445 501.73493164 2.32250977 501.75219727 C7.38076126 501.80154606 11.13120035 501.49951286 14.83227539 497.87329102 C16.4774814 494.87830299 16.84204574 492.20678837 17.28149414 488.82641602 C17.44004883 487.65594727 17.59860352 486.48547852 17.76196289 485.27954102 C17.92631836 483.94149414 17.92631836 483.94149414 18.09399414 482.57641602 C14.8972285 482.57641602 13.87857478 483.0419707 11.15258789 484.54516602 Z " fill="#00ADB9" transform="translate(725.906005859375,-0.576416015625)"/>
<path d="M0 0 C0.75643295 0.00142502 1.51286591 0.00285004 2.29222107 0.00431824 C3.57849144 -0.00029671 3.57849144 -0.00029671 4.89074707 -0.00500488 C5.81785995 0.00218063 6.74497284 0.00936615 7.70018005 0.01676941 C8.64940842 0.01722763 9.59863678 0.01768585 10.57662964 0.01815796 C12.58486683 0.02118178 14.59310164 0.02907192 16.6013031 0.04142761 C19.68708029 0.05968377 22.77255763 0.06193734 25.85838318 0.06169128 C27.80565142 0.06660633 29.75291761 0.07243459 31.70018005 0.07926941 C33.09388573 0.08093864 33.09388573 0.08093864 34.51574707 0.0826416 C35.37010849 0.08902145 36.22446991 0.09540131 37.10472107 0.10197449 C37.86035843 0.10578629 38.61599579 0.10959808 39.39453125 0.11352539 C41.1337738 0.24723816 41.1337738 0.24723816 42.1337738 1.24723816 C42.26261965 3.3077192 42.32076712 5.37262877 42.35255432 7.43688965 C42.36384239 8.09081277 42.37513046 8.74473588 42.38676059 9.41847485 C42.42340687 11.62607738 42.45272149 13.83371483 42.48191833 16.04142761 C42.50621602 17.61814844 42.53082556 19.19486449 42.5557251 20.77157593 C42.77648506 35.20504786 42.93198714 49.63971107 43.07336617 64.07415485 C43.17854651 74.74036065 43.3133109 85.40530694 43.48760331 96.07061225 C43.60760625 103.57202979 43.69256303 111.07337062 43.75220764 118.57550782 C43.78880338 123.0534914 43.84072281 127.53004777 43.93071365 132.00730324 C44.01489419 136.22891275 44.05535275 140.44878655 44.06363487 144.67120552 C44.07405358 146.21279846 44.09976684 147.75438393 44.14270592 149.29541397 C44.45236548 160.88404622 41.83613487 166.83536161 34.1337738 175.24723816 C32.9989617 176.66680971 31.87257255 178.09325559 30.76268005 179.53239441 C29.7437689 180.79411958 28.72165339 182.0532641 27.6962738 183.30973816 C27.14697205 183.98456238 26.59767029 184.6593866 26.03172302 185.35466003 C21.95125475 190.33124508 17.72277627 195.12726142 13.34861755 199.84880066 C11.29548326 202.07212422 9.30005841 204.33280564 7.3212738 206.62223816 C4.69677451 209.63050858 2.08205626 212.55166563 -0.8662262 215.24723816 C-1.5262262 215.24723816 -2.1862262 215.24723816 -2.8662262 215.24723816 C-4.38729253 212.20510548 -4.24051957 208.96676244 -4.4287262 205.62223816 C-4.47190979 204.91583191 -4.51509338 204.20942566 -4.55958557 203.48161316 C-4.6656737 201.73705279 -4.76645509 199.99217119 -4.8662262 198.24723816 C-5.29032776 198.61075378 -5.71442932 198.97426941 -6.15138245 199.34880066 C-7.39107379 200.41139324 -8.63206168 201.47247426 -9.8740387 202.53239441 C-11.12859611 203.61229775 -12.37472373 204.70214963 -13.6084137 205.80583191 C-28.94586364 219.41163427 -46.13135735 221.04214423 -65.94093323 220.43083191 C-83.8183305 219.30883201 -99.66805485 209.32623265 -111.80763245 196.64567566 C-127.0661876 178.868156 -133.10080466 154.07726825 -131.6474762 131.03239441 C-129.9293657 110.85860246 -123.50011521 91.5401181 -109.8662262 76.24723816 C-109.26294495 75.56274597 -108.6596637 74.87825378 -108.0381012 74.17301941 C-96.15912487 61.49728248 -79.1695864 53.83495263 -61.8974762 52.92692566 C-44.30007464 52.36901809 -27.13911246 55.55738506 -13.83888245 67.95426941 C-12.1125011 69.6856045 -10.41431861 71.44591278 -8.7568512 73.24333191 C-7.02116966 75.31296518 -7.02116966 75.31296518 -4.8662262 76.24723816 C-4.85813934 75.32460175 -4.85005249 74.40196533 -4.84172058 73.45137024 C-4.76387856 64.7693459 -4.67661971 56.08747884 -4.57869911 47.40565681 C-4.52868784 42.94191235 -4.48235844 38.4781921 -4.4443512 34.014328 C-4.40755914 29.70891535 -4.36121619 25.40370306 -4.30816269 21.09846115 C-4.28958629 19.4534086 -4.2744904 17.80831304 -4.26288223 16.16319656 C-4.24607492 13.86434017 -4.2170544 11.56594592 -4.18507385 9.26725769 C-4.17175018 7.95709686 -4.15842651 6.64693604 -4.1446991 5.29707336 C-3.84419514 2.005954 -3.49430798 0.46292688 0 0 Z " fill="#F9FCFE" transform="translate(869.8662261962891,171.7527618408203)"/>
<path d="M0 0 C5.57069468 3.96282653 12.2768119 9.22564279 14.73828125 15.68359375 C15.04894531 16.41707031 15.35960937 17.15054688 15.6796875 17.90625 C17.72074389 18.79318303 17.72074389 18.79318303 19.6796875 18.90625 C20.38931641 17.83697266 20.38931641 17.83697266 21.11328125 16.74609375 C28.83451509 5.56309816 37.10627988 -0.07047577 49.6796875 -5.09375 C50.51757812 -5.43664062 51.35546875 -5.77953125 52.21875 -6.1328125 C65.35942335 -10.5964698 82.09833942 -9.60673082 94.6796875 -4.09375 C95.618125 -3.69285156 96.5565625 -3.29195312 97.5234375 -2.87890625 C110.81195134 3.56005059 120.73595284 15.72591169 126.0234375 29.375 C129.00384546 38.65684194 129.82789439 47.11924085 129.79321289 56.79858398 C129.79335892 57.87249893 129.79350494 58.94641388 129.7936554 60.0528717 C129.79296132 63.58604993 129.7851926 67.11917478 129.77734375 70.65234375 C129.77547778 73.10856599 129.77405472 75.56478861 129.77305603 78.02101135 C129.76924499 84.47359247 129.75942677 90.92615095 129.74835205 97.37872314 C129.73810754 103.96797377 129.7335519 110.55722807 129.72851562 117.14648438 C129.71780323 130.06641589 129.70093707 142.98633174 129.6796875 155.90625 C123.71655584 155.93089574 117.75345355 155.949084 111.7902832 155.96118164 C109.76000452 155.96622278 107.72972948 155.97305557 105.69946289 155.98168945 C102.78791403 155.99376467 99.876413 155.99948034 96.96484375 156.00390625 C95.59453758 156.01164818 95.59453758 156.01164818 94.19654846 156.01954651 C92.02393323 156.01974168 89.85141454 155.96836805 87.6796875 155.90625 C85.58091946 153.80748196 86.51485399 149.16169235 86.50610352 146.26245117 C86.4994165 145.35499146 86.49272949 144.44753174 86.48583984 143.51257324 C86.47174869 141.53295952 86.45986774 139.55332915 86.44989204 137.57369041 C86.43350598 134.43239298 86.41026294 131.2912164 86.38499451 128.14997864 C86.31419626 119.21503735 86.25441253 110.2800433 86.20288086 101.3449707 C86.17090357 95.88427626 86.12956713 90.42371485 86.08268547 84.96312904 C86.06675947 82.88813004 86.05439502 80.81310032 86.04577827 78.73805809 C86.58115494 56.14607505 86.58115494 56.14607505 75.94140625 37.08984375 C69.73108174 31.37524359 63.42596423 30.39080957 55.13671875 30.5234375 C47.15866492 31.40688301 39.05494901 34.87546879 33.6796875 40.90625 C30.60751142 46.61411812 27.57858036 52.53357084 27.52146912 59.10136414 C27.5116803 59.95531769 27.50189148 60.80927124 27.49180603 61.68910217 C27.48605057 62.62274094 27.4802951 63.5563797 27.47436523 64.51831055 C27.46446564 65.50385925 27.45456604 66.48940796 27.44436646 67.50482178 C27.4127394 70.76751287 27.38798918 74.03021852 27.36328125 77.29296875 C27.34271277 79.5531299 27.32171633 81.8132872 27.30030823 84.07344055 C27.24507664 90.02626424 27.19567211 95.9791227 27.14746094 101.93200684 C27.09725389 108.00483297 27.04156366 114.07760851 26.98632812 120.15039062 C26.87873323 132.06896721 26.77729117 143.9875877 26.6796875 155.90625 C20.5741404 155.93089513 14.46862199 155.94908371 8.36303711 155.96118164 C6.28425594 155.96622288 4.20547834 155.97305574 2.12670898 155.98168945 C-0.85433836 155.99376422 -3.83533899 155.99948024 -6.81640625 156.00390625 C-8.21952309 156.01164818 -8.21952309 156.01164818 -9.65098572 156.01954651 C-10.51180252 156.01962204 -11.37261932 156.01969757 -12.25952148 156.01977539 C-13.02119125 156.021996 -13.78286102 156.02421661 -14.56761169 156.02650452 C-16.3203125 155.90625 -16.3203125 155.90625 -17.3203125 154.90625 C-17.42977247 151.78279287 -17.47455417 148.68064039 -17.47802734 145.55639648 C-17.48310806 144.5742366 -17.48818878 143.59207672 -17.49342346 142.58015442 C-17.50415496 140.43846477 -17.51276414 138.29676371 -17.51954269 136.15505791 C-17.53130033 132.76282208 -17.55074742 129.37071539 -17.57266235 125.97853088 C-17.63436707 116.33037636 -17.68825211 106.68223262 -17.72167969 97.03393555 C-17.74265725 91.1388006 -17.777993 85.24389678 -17.82243729 79.34889412 C-17.8365811 77.10312693 -17.84531606 74.8573188 -17.84849167 72.61150932 C-17.8534151 69.46138334 -17.87661312 66.31186683 -17.90380859 63.16186523 C-17.90080246 62.23842316 -17.89779633 61.31498108 -17.8946991 60.36355591 C-18.01553458 50.91068844 -21.10247281 44.00784355 -27.3203125 36.90625 C-33.35365769 31.17457207 -39.80419633 30.39971738 -47.859375 30.51953125 C-55.54380014 31.37817469 -62.66420175 34.63408054 -68.3203125 39.90625 C-70.14737035 42.72967475 -70.14737035 42.72967475 -71.5703125 45.84375 C-72.07046875 46.86339844 -72.570625 47.88304687 -73.0859375 48.93359375 C-75.51039321 54.77223551 -75.48612025 60.3295718 -75.52563477 66.56176758 C-75.53553436 67.5281012 -75.54543396 68.49443481 -75.55563354 69.49005127 C-75.58716402 72.67693653 -75.61197257 75.86383669 -75.63671875 79.05078125 C-75.65729557 81.26324343 -75.67829224 83.47570175 -75.69969177 85.68815613 C-75.7548372 91.50614283 -75.80427968 97.32416456 -75.85253906 103.14221191 C-75.90280907 109.08116772 -75.95846642 115.02007276 -76.01367188 120.95898438 C-76.12116136 132.60802953 -76.22262677 144.2571188 -76.3203125 155.90625 C-82.56826925 155.93152124 -88.81621291 155.94908344 -95.06420898 155.96118164 C-97.19149264 155.96622298 -99.31877281 155.97305591 -101.44604492 155.98168945 C-104.49659076 155.99376379 -107.54709095 155.99948014 -110.59765625 156.00390625 C-112.03358376 156.01164818 -112.03358376 156.01164818 -113.4985199 156.01954651 C-114.37935745 156.01962204 -115.26019501 156.01969757 -116.16772461 156.01977539 C-117.3368766 156.02310631 -117.3368766 156.02310631 -118.52964783 156.02650452 C-120.3203125 155.90625 -120.3203125 155.90625 -121.3203125 154.90625 C-121.4264216 153.55488004 -121.46434139 152.19806851 -121.47421265 150.84257507 C-121.48281311 149.966642 -121.49141357 149.09070892 -121.50027466 148.18823242 C-121.50453461 147.21950195 -121.50879456 146.25077148 -121.51318359 145.25268555 C-121.52136108 144.23793655 -121.52953857 143.22318756 -121.53796387 142.1776886 C-121.56289161 138.79945471 -121.57935988 135.4212633 -121.59375 132.04296875 C-121.59907368 130.88941202 -121.60439735 129.73585529 -121.60988235 128.5473423 C-121.63665618 122.43220305 -121.6560105 116.31708443 -121.67041016 110.2019043 C-121.68699519 103.90171525 -121.73170954 97.60205572 -121.7827816 91.30206585 C-121.81655747 86.44708198 -121.82799945 81.59222158 -121.83363724 76.73713112 C-121.84032978 74.41645106 -121.85549935 72.09577855 -121.87952805 69.77521324 C-122.10332287 46.83839679 -122.10332287 46.83839679 -116.3203125 36.90625 C-115.69487299 35.58721462 -115.07695773 34.26456905 -114.46875 32.9375 C-110.65095389 25.33554474 -106.70441625 17.81316965 -102.6328125 10.34375 C-102.18147949 9.51101562 -101.73014648 8.67828125 -101.26513672 7.8203125 C-99.98414064 5.49413259 -98.66171913 3.19801086 -97.3203125 0.90625 C-96.74047607 -0.15505127 -96.74047607 -0.15505127 -96.14892578 -1.23779297 C-94.97265625 -3.18359375 -94.97265625 -3.18359375 -92.3203125 -6.09375 C-89.26998338 -6.50216227 -87.49596376 -6.53908035 -84.5703125 -6.09375 C-83.54357422 -5.98740234 -83.54357422 -5.98740234 -82.49609375 -5.87890625 C-77.54684012 -5.32027762 -77.54684012 -5.32027762 -76.3203125 -4.09375 C-76.08330011 -1.23497091 -75.89812068 1.60508297 -75.7578125 4.46875 C-75.71462891 5.27505859 -75.67144531 6.08136719 -75.62695312 6.91210938 C-75.52055988 8.90993805 -75.41990362 10.9080707 -75.3203125 12.90625 C-74.6603125 12.90625 -74.0003125 12.90625 -73.3203125 12.90625 C-71.76970267 11.03278592 -70.43254434 9.04728269 -69.05078125 7.046875 C-65.31845566 2.42991242 -60.70424123 -0.10654689 -55.4453125 -2.71875 C-54.27226562 -3.30914062 -53.09921875 -3.89953125 -51.890625 -4.5078125 C-35.25110089 -11.89911095 -15.47606796 -9.00091786 0 0 Z " fill="#F9FCFE" transform="translate(394.3203125,233.09375)"/>
<path d="M0 0 C3.62368872 2.75299685 6.83221019 5.7378977 10 9 C10.68449219 9.67546875 11.36898437 10.3509375 12.07421875 11.046875 C32.09469624 31.97201061 35.53678559 59.1989263 37 87 C-19.43 87.495 -19.43 87.495 -77 88 C-75.55619491 96.66283052 -71.97907875 101.81787018 -65.25390625 107.39453125 C-54.15097051 115.30320818 -43.22838748 116.02195884 -30 115 C-21.93187437 113.48362092 -14.9310896 110.31839372 -8 106 C-6.33414045 104.99865604 -4.66755839 103.99851229 -3 103 C0.67261088 106.62311477 4.33855933 110.25279386 7.99853516 113.88867188 C9.24412757 115.12421658 10.49151045 116.35795901 11.74072266 117.58984375 C13.53763783 119.36245697 15.32798098 121.1414854 17.1171875 122.921875 C17.67558319 123.46994812 18.23397888 124.01802124 18.80929565 124.58270264 C21.42688403 127.19953116 23.6413918 129.51902547 25 133 C6.5194474 150.88265237 -18.12393485 156.65454431 -43.0847168 156.47460938 C-67.02885096 155.86538694 -86.87992948 146.7718657 -104 130 C-104.69867187 129.33742188 -105.39734375 128.67484375 -106.1171875 127.9921875 C-119.91091986 113.87642248 -126.10639619 91.86348076 -126.03515625 72.57421875 C-125.44439271 48.91578715 -116.59441346 27.88452558 -100 11 C-99.38640625 10.37351563 -98.7728125 9.74703125 -98.140625 9.1015625 C-72.54874971 -15.06854194 -29.49584498 -18.32646251 0 0 Z " fill="#FAFDFF" transform="translate(679,236)"/>
<path d="M0 0 C1.08087891 -0.01224609 2.16175781 -0.02449219 3.27539062 -0.03710938 C9.65108406 -0.04870857 15.4236485 0.45052328 21.5625 2.1875 C22.32038818 2.39963135 23.07827637 2.6117627 23.85913086 2.83032227 C36.53406492 6.53319564 47.75212967 14.47350194 56.5625 24.1875 C56.5625 24.8475 56.5625 25.5075 56.5625 26.1875 C57.2225 26.1875 57.8825 26.1875 58.5625 26.1875 C68.91862841 39.72611623 71.73988249 56.95517982 71.67602539 73.55078125 C71.67617142 74.55656723 71.67631744 75.56235321 71.6764679 76.59861755 C71.67577526 79.89910086 71.66801341 83.19952664 71.66015625 86.5 C71.65828976 88.79785125 71.65686695 91.0957029 71.65586853 93.39355469 C71.65206153 99.42361562 71.64224682 105.45365224 71.63116455 111.48370361 C71.6209113 117.64408031 71.61636254 123.80446097 71.61132812 129.96484375 C71.60062286 142.03907315 71.58356834 154.11328455 71.5625 166.1875 C65.3329242 166.26339768 59.10346705 166.31603504 52.87353516 166.35229492 C50.75304712 166.36740645 48.63259046 166.3878964 46.51220703 166.41381836 C43.46899689 166.45009786 40.42619897 166.46720242 37.3828125 166.48046875 C36.43068878 166.49595261 35.47856506 166.51143646 34.49758911 166.52738953 C33.17644608 166.52772942 33.17644608 166.52772942 31.82861328 166.52807617 C30.66279221 166.53806892 30.66279221 166.53806892 29.47341919 166.54826355 C28.84281586 166.42921158 28.21221252 166.31015961 27.5625 166.1875 C25.42663322 162.98369983 25.33117825 162.16810033 25.4375 158.5 C25.45554687 157.69175781 25.47359375 156.88351562 25.4921875 156.05078125 C25.51539062 155.43589844 25.53859375 154.82101562 25.5625 154.1875 C24.5725 153.8575 23.5825 153.5275 22.5625 153.1875 C22.2325 154.1775 21.9025 155.1675 21.5625 156.1875 C20.22916667 156.52083333 18.89583333 156.85416667 17.5625 157.1875 C17.2325 158.1775 16.9025 159.1675 16.5625 160.1875 C-0.67500265 170.74443942 -22.7138058 171.72511566 -42.04296875 167.22265625 C-57.44215537 162.52670176 -70.13763212 152.20607569 -77.875 138.0625 C-82.54872612 128.96654873 -82.61715372 111.3352709 -79.69628906 101.75683594 C-77.27985153 96.00616721 -74.10728311 90.39972511 -69.4375 86.1875 C-68.81875 85.56875 -68.2 84.95 -67.5625 84.3125 C-66.86125 83.61125 -66.16 82.91 -65.4375 82.1875 C-64.7465625 81.42308594 -64.055625 80.65867187 -63.34375 79.87109375 C-48.2120668 65.89869273 -27.22802782 62.46375082 -7.4140625 62.94921875 C0.81746343 63.44246343 0.81746343 63.44246343 2.5625 65.1875 C3.67625 65.31125 4.79 65.435 5.9375 65.5625 C11.31064459 66.16382665 16.37824094 67.70628312 21.5625 69.1875 C22.89424114 69.52713868 24.22699318 69.86298432 25.5625 70.1875 C25.3810903 61.51281776 23.99806664 53.86445802 17.83984375 47.37109375 C15.83177326 45.72587789 13.83214087 44.4462263 11.5625 43.1875 C10.46228516 42.56875 10.46228516 42.56875 9.33984375 41.9375 C-2.81613023 36.38929001 -18.89105891 37.8386863 -31.28125 41.96875 C-35.50233282 43.59867307 -39.68665926 45.28663792 -43.81640625 47.13671875 C-46.36286465 48.15757912 -48.73654627 48.74303926 -51.4375 49.1875 C-54.4375 45.5625 -54.4375 45.5625 -54.4375 42.1875 C-55.0975 41.8575 -55.7575 41.5275 -56.4375 41.1875 C-57.82389161 38.85329926 -59.11741697 36.52709896 -60.375 34.125 C-60.72240234 33.48111328 -61.06980469 32.83722656 -61.42773438 32.17382812 C-63.83607799 27.62473463 -65.71286822 23.0370132 -67.4375 18.1875 C-45.89913692 7.44558221 -24.27190177 0.01442181 0 0 Z M-22.4375 64.1875 C-22.4375 64.5175 -22.4375 64.8475 -22.4375 65.1875 C-19.7975 65.1875 -17.1575 65.1875 -14.4375 65.1875 C-14.4375 64.8575 -14.4375 64.5275 -14.4375 64.1875 C-17.0775 64.1875 -19.7175 64.1875 -22.4375 64.1875 Z M-12.4375 64.1875 C-12.4375 64.5175 -12.4375 64.8475 -12.4375 65.1875 C-9.4675 65.1875 -6.4975 65.1875 -3.4375 65.1875 C-3.4375 64.8575 -3.4375 64.5275 -3.4375 64.1875 C-6.4075 64.1875 -9.3775 64.1875 -12.4375 64.1875 Z M-23.4375 98.1875 C-24.571875 98.496875 -25.70625 98.80625 -26.875 99.125 C-30.24100857 100.52066209 -31.49219534 102.13059268 -33.4375 105.1875 C-34.63799407 108.28757201 -34.63799407 108.28757201 -35.4375 111.1875 C-35.7675 111.8475 -36.0975 112.5075 -36.4375 113.1875 C-37.088851 120.74317165 -35.11551644 125.37647661 -30.8125 131.5 C-21.27461261 138.27691998 -7.01604925 137.30026425 4.0625 135.5 C12.40727544 133.48133201 19.57824674 128.92635036 24.18359375 121.61328125 C25.96163488 117.19588162 25.89627668 113.51585784 25.75 108.8125 C25.73646484 107.98105469 25.72292969 107.14960938 25.70898438 106.29296875 C25.67389059 104.25752934 25.62009228 102.22242709 25.5625 100.1875 C10.18482655 93.11297755 -7.8047005 91.37795852 -23.4375 98.1875 Z M-79.4375 104.1875 C-78.4375 106.1875 -78.4375 106.1875 -78.4375 106.1875 Z M-14.4375 137.1875 C-14.4375 137.5175 -14.4375 137.8475 -14.4375 138.1875 C-10.8075 138.1875 -7.1775 138.1875 -3.4375 138.1875 C-3.4375 137.8575 -3.4375 137.5275 -3.4375 137.1875 C-7.0675 137.1875 -10.6975 137.1875 -14.4375 137.1875 Z " fill="#323086" transform="translate(80.4375,223.8125)"/>
<path d="M0 0 C1.53875415 0.40700835 3.08054786 0.80267831 4.625 1.1875 C17.7930655 5.11447502 29.52309085 15.28033458 36.46875 26.9765625 C42.67261747 39.22603551 45.32573167 51.61038648 45.22705078 65.23291016 C45.22734283 66.30726318 45.22763489 67.38161621 45.22793579 68.48852539 C45.22655321 72.00545604 45.21104273 75.5221693 45.1953125 79.0390625 C45.19157856 81.49099614 45.18873339 83.94293128 45.18673706 86.39486694 C45.17913065 92.82277607 45.15950796 99.25059364 45.1373291 105.6784668 C45.11680606 112.24787152 45.10772157 118.81729115 45.09765625 125.38671875 C45.07625914 138.25785903 45.0411015 151.12890755 45 164 C30.15 164 15.3 164 0 164 C-0.911446 161.26566199 -1.12302735 159.69514329 -1.11784363 156.88563538 C-1.11952042 155.63071793 -1.11952042 155.63071793 -1.12123108 154.35044861 C-1.11756027 153.43566238 -1.11388947 152.52087616 -1.11010742 151.57836914 C-1.11065024 149.57520039 -1.11123726 147.57203164 -1.11186218 145.56886292 C-1.11043402 144.50492373 -1.10900585 143.44098454 -1.10753441 142.34480476 C-1.10401326 136.70312873 -1.12982915 131.06155221 -1.15039062 125.41992188 C-1.17468016 118.24397494 -1.19047894 111.06831618 -1.17504883 103.89233398 C-1.16334274 98.09197815 -1.18090868 92.29233827 -1.21749306 86.49209404 C-1.22607383 84.28869604 -1.22408151 82.08522892 -1.210989 79.8818531 C-1.10049575 63.04967335 -1.10049575 63.04967335 -8 48 C-8.33803146 47.2628627 -8.67606293 46.5257254 -9.02433777 45.76625061 C-9.92014314 43.7020404 -9.92014314 43.7020404 -12.6875 42.9375 C-13.780625 42.628125 -14.87375 42.31875 -16 42 C-17.093125 41.484375 -18.18625 40.96875 -19.3125 40.4375 C-27.81752599 37.12198139 -34.47658897 37.95592463 -43 41 C-45.02156704 41.95564988 -47.02966574 42.94274747 -49 44 C-50.0209375 44.1546875 -50.0209375 44.1546875 -51.0625 44.3125 C-54.39450572 45.49482461 -56.18814462 48.10589544 -58 51 C-62.03523288 60.03616252 -63.29373407 69.96353737 -63.31884766 79.76416016 C-63.33391609 81.141604 -63.33391609 81.141604 -63.34928894 82.546875 C-63.37987008 85.54426518 -63.39708563 88.54156712 -63.4140625 91.5390625 C-63.43279436 93.63228095 -63.45236925 95.725492 -63.4727478 97.81869507 C-63.5238618 103.29957706 -63.56359798 108.78048348 -63.60089111 114.26147461 C-63.64813728 120.85297246 -63.70964555 127.44435109 -63.76873779 134.03575134 C-63.856697 144.02378555 -63.92664252 154.01179984 -64 164 C-78.85 164 -93.7 164 -109 164 C-109.33 110.54 -109.66 57.08 -110 2 C-94.82 2.33 -79.64 2.66 -64 3 C-63.505 10.92 -63.505 10.92 -63 19 C-62.34 19 -61.68 19 -61 19 C-59.81311994 17.6206529 -58.6289022 16.23715997 -57.51171875 14.80078125 C-45.4983725 0.49030936 -17.76915597 -8.69143499 0 0 Z " fill="#323086" transform="translate(1235,226)"/>
<path d="M0 0 C0.84525742 0.00142502 1.69051483 0.00285004 2.56138611 0.00431824 C3.51900345 0.00124161 4.47662079 -0.00183502 5.46325684 -0.00500488 C6.49973862 0.00218063 7.5362204 0.00936615 8.60411072 0.01676941 C9.66431931 0.01722763 10.72452789 0.01768585 11.81686401 0.01815796 C14.06049212 0.02118245 16.30411809 0.0290746 18.54771423 0.04142761 C21.99562456 0.05968083 25.44326651 0.06193737 28.89122009 0.06169128 C31.06635264 0.0666064 33.24148336 0.07243469 35.41661072 0.07926941 C36.45511673 0.08038223 37.49362274 0.08149506 38.56359863 0.0826416 C39.51806381 0.08902145 40.47252899 0.09540131 41.45591736 0.10197449 C42.30037918 0.10578629 43.144841 0.10959808 44.01489258 0.11352539 C45.94395447 0.24723816 45.94395447 0.24723816 46.94395447 1.24723816 C47.06668296 2.84237709 47.1217649 4.44278748 47.14927673 6.04240417 C47.17919456 7.5738784 47.17919456 7.5738784 47.2097168 9.1362915 C47.22642929 10.24669296 47.24314178 11.35709442 47.26036072 12.50114441 C47.28114182 13.63172775 47.30192291 14.7623111 47.32333374 15.92715454 C47.38895244 19.55461801 47.44777124 23.18215649 47.50645447 26.80973816 C47.54962798 29.26222001 47.59324187 31.71469416 47.63731384 34.16716003 C47.7446463 40.19377242 47.84638937 46.22046017 47.94395447 52.24723816 C48.59319382 52.25754562 49.24243317 52.26785309 49.91134644 52.2784729 C56.64294498 52.38629952 63.37440316 52.50091597 70.1058197 52.61955261 C72.62108943 52.66297822 75.1363901 52.70464745 77.65171814 52.74455261 C81.25833991 52.80207109 84.86480478 52.86581783 88.47129822 52.93083191 C89.60357346 52.9475444 90.73584869 52.9642569 91.9024353 52.98147583 C92.94343887 53.00142105 93.98444244 53.02136627 95.05699158 53.04191589 C95.97854538 53.05746017 96.90009918 53.07300446 97.84957886 53.08901978 C99.94395447 53.24723816 99.94395447 53.24723816 100.94395447 54.24723816 C101.03729152 55.84334797 101.06140819 57.44357244 101.05747986 59.04240417 C101.05740433 60.06338699 101.0573288 61.08436981 101.05725098 62.1362915 C101.05208969 63.24669296 101.04692841 64.35709442 101.04161072 65.50114441 C101.0394883 67.19701942 101.0394883 67.19701942 101.037323 68.92715454 C101.03170466 72.55470881 101.01914905 76.1822024 101.00645447 79.80973816 C101.00144183 82.26221123 100.99687852 84.71468526 100.99278259 87.16716003 C100.98172927 93.19387361 100.9649733 99.22055155 100.94395447 105.24723816 C99.97009544 105.26269936 99.97009544 105.26269936 98.9765625 105.2784729 C92.24496395 105.38629952 85.51350577 105.50091597 78.78208923 105.61955261 C76.26681951 105.66297822 73.75151884 105.70464745 71.2361908 105.74455261 C67.62956903 105.80207109 64.02310416 105.86581783 60.41661072 105.93083191 C59.28433548 105.9475444 58.15206024 105.9642569 56.98547363 105.98147583 C55.94447006 106.00142105 54.90346649 106.02136627 53.83091736 106.04191589 C52.90936356 106.05746017 51.98780975 106.07300446 51.03833008 106.08901978 C48.95644975 106.01746572 48.95644975 106.01746572 47.94395447 107.24723816 C47.82122598 108.84237709 47.76614404 110.44278748 47.7386322 112.04240417 C47.71868698 113.06338699 47.69874176 114.08436981 47.67819214 115.1362915 C47.66147964 116.24669296 47.64476715 117.35709442 47.62754822 118.50114441 C47.59637657 120.19701942 47.59637657 120.19701942 47.5645752 121.92715454 C47.4989565 125.55461801 47.4401377 129.18215649 47.38145447 132.80973816 C47.33828096 135.26222001 47.29466706 137.71469416 47.25059509 140.16716003 C47.14326263 146.19377242 47.04151957 152.22046017 46.94395447 158.24723816 C39.84150448 158.27250603 32.73906599 158.29007017 25.63658142 158.3021698 C23.21828274 158.30721165 20.79998713 158.31404494 18.38169861 158.32267761 C14.91416163 158.33474973 11.4466648 158.34046779 7.97911072 158.34489441 C6.89058304 158.35005569 5.80205536 158.35521698 4.68054199 158.36053467 C3.17909889 158.36064796 3.17909889 158.36064796 1.64732361 158.36076355 C0.31828758 158.36409447 0.31828758 158.36409447 -1.03759766 158.36749268 C-3.05604553 158.24723816 -3.05604553 158.24723816 -4.05604553 157.24723816 C-4.17877402 155.65209923 -4.23385596 154.05168884 -4.2613678 152.45207214 C-4.28131302 151.43108932 -4.30125824 150.41010651 -4.32180786 149.35818481 C-4.33852036 148.24778336 -4.35523285 147.1373819 -4.37245178 145.99333191 C-4.39323288 144.86274857 -4.41401398 143.73216522 -4.4354248 142.56732178 C-4.5010435 138.93985831 -4.5598623 135.31231983 -4.61854553 131.68473816 C-4.66171904 129.2322563 -4.70533294 126.77978216 -4.74940491 124.32731628 C-4.85673737 118.30070389 -4.95848043 112.27401615 -5.05604553 106.24723816 C-5.70528488 106.23693069 -6.35452423 106.22662323 -7.0234375 106.21600342 C-13.75503605 106.1081768 -20.48649423 105.99356035 -27.21791077 105.87492371 C-29.73318049 105.8314981 -32.24848116 105.78982887 -34.7638092 105.74992371 C-38.37043097 105.69240523 -41.97689584 105.62865849 -45.58338928 105.56364441 C-46.71566452 105.54693192 -47.84793976 105.53021942 -49.01452637 105.51300049 C-50.05552994 105.49305527 -51.09653351 105.47311005 -52.16908264 105.45256042 C-53.09063644 105.43701614 -54.01219025 105.42147186 -54.96166992 105.40545654 C-57.05604553 105.24723816 -57.05604553 105.24723816 -58.05604553 104.24723816 C-58.15963332 102.72337585 -58.19455692 101.1947683 -58.2013092 99.66740417 C-58.20768906 98.69291824 -58.21406891 97.71843231 -58.22064209 96.7144165 C-58.22175491 95.65403671 -58.22286774 94.59365692 -58.22401428 93.50114441 C-58.22734268 92.4196965 -58.23067108 91.3382486 -58.23410034 90.22402954 C-58.23917431 87.9315585 -58.24150852 85.63908004 -58.24134827 83.34660339 C-58.24353398 79.82833249 -58.26168281 76.31037535 -58.28065491 72.79216003 C-58.28358881 70.5701559 -58.28557363 68.34815028 -58.28651428 66.12614441 C-58.2936998 65.06778885 -58.30088531 64.00943329 -58.30828857 62.91900635 C-58.30521194 61.94136826 -58.30213531 60.96373016 -58.29896545 59.95646667 C-58.30039047 59.09344437 -58.30181549 58.23042206 -58.30328369 57.34124756 C-58.05604553 55.24723816 -58.05604553 55.24723816 -56.05604553 53.24723816 C-53.84141541 53.00672913 -53.84141541 53.00672913 -51.05555725 53.02018738 C-50.01462921 53.02033844 -48.97370117 53.0204895 -47.90122986 53.02064514 C-46.21055893 53.036129 -46.21055893 53.036129 -44.48573303 53.05192566 C-43.33436859 53.05475555 -42.18300415 53.05758545 -40.99674988 53.0605011 C-37.30807741 53.07172408 -33.619645 53.0968326 -29.93104553 53.12223816 C-27.43495528 53.13226522 -24.93886124 53.14139154 -22.44276428 53.14958191 C-16.31377569 53.17167032 -10.18492776 53.20516869 -4.05604553 53.24723816 C-4.06048676 52.6127475 -4.06492798 51.97825684 -4.06950378 51.32453918 C-4.11364633 44.73889918 -4.14387405 38.15330099 -4.16590881 31.56755066 C-4.17598536 29.10757237 -4.18964684 26.6476061 -4.20692444 24.18766785 C-4.23110014 20.65801531 -4.24251193 17.12852069 -4.25135803 13.59880066 C-4.2616806 12.49356049 -4.27200317 11.38832031 -4.28263855 10.24958801 C-4.28286514 8.71822708 -4.28286514 8.71822708 -4.28309631 7.15592957 C-4.28753754 6.25436127 -4.29197876 5.35279297 -4.29655457 4.42390442 C-3.96435599 1.41742515 -3.02793327 0.36410704 0 0 Z " fill="#FAFDFF" transform="translate(616.0560455322266,29.752761840820313)"/>
<path d="M0 0 C0.85436142 -0.00315216 1.70872284 -0.00630432 2.588974 -0.009552 C3.51811111 -0.00752777 4.44724823 -0.00550354 5.40454102 -0.00341797 C6.35281265 -0.00437469 7.30108429 -0.00533142 8.27809143 -0.00631714 C10.28809678 -0.0069991 12.29810432 -0.0051437 14.30810547 -0.00097656 C17.39173316 0.00436558 20.4752148 -0.00091797 23.55883789 -0.00732422 C25.50740592 -0.00666332 27.45597386 -0.00538193 29.40454102 -0.00341797 C30.3316539 -0.0054422 31.25876678 -0.00746643 32.213974 -0.009552 C33.07148758 -0.00639984 33.92900116 -0.00324768 34.8125 0 C35.56893295 0.00079559 36.32536591 0.00159119 37.10472107 0.00241089 C38.97094727 0.12939453 38.97094727 0.12939453 40.97094727 1.12939453 C41.30094727 73.06939453 41.63094727 145.00939453 41.97094727 219.12939453 C26.79094727 219.12939453 11.61094727 219.12939453 -4.02905273 219.12939453 C-4.18200454 190.72301892 -4.33082706 162.31663164 -4.47201633 133.91019535 C-4.53770187 120.7216086 -4.6052764 107.5330365 -4.67724609 94.34448242 C-4.73994528 82.85389451 -4.79915308 71.36329491 -4.85410827 59.87266725 C-4.88334974 53.78437278 -4.91438018 47.69609892 -4.94958687 41.60783577 C-4.98262779 35.88457796 -5.01102228 30.16131644 -5.03575897 24.43801689 C-5.0457028 22.33081547 -5.05738537 20.22362147 -5.0708828 18.11643982 C-5.0889724 15.25288295 -5.10096606 12.38936571 -5.11134338 9.52577209 C-5.11814717 8.68045821 -5.12495096 7.83514432 -5.13196093 6.96421486 C-5.13577375 5.01897601 -5.08826563 3.07373569 -5.02905273 1.12939453 C-3.50065613 -0.39900208 -2.12992292 0.00224255 0 0 Z " fill="#333187" transform="translate(194.029052734375,170.87060546875)"/>
<path d="M0 0 C15.18 0.33 30.36 0.66 46 1 C46 54.13 46 107.26 46 162 C31.15 162 16.3 162 1 162 C0.67 108.54 0.34 55.08 0 0 Z " fill="#333187" transform="translate(1041,228)"/>
<path d="M0 0 C8.85756017 7.24709469 15.8866925 17.8033584 17.75 29.25 C17.9882796 32.97690949 17.98093775 36.70368086 18 40.4375 C18.020625 41.42814453 18.04125 42.41878906 18.0625 43.43945312 C18.12793987 55.91392835 14.28642894 66.06125941 5.83203125 75.359375 C-3.65219247 84.21888938 -13.90998007 85.72209786 -26.36328125 85.5234375 C-36.80058802 85.11837776 -44.69457535 81.33957959 -52.25 74.25 C-53.20712891 73.35474609 -53.20712891 73.35474609 -54.18359375 72.44140625 C-64.15751229 62.12429911 -65.64969848 49.56207147 -65.4609375 35.9609375 C-65.08958596 24.29316377 -59.57056871 12.49397295 -51.25 4.25 C-49.0628927 2.62018125 -46.77023007 1.29893171 -44.375 0 C-43.78847656 -0.33773438 -43.20195313 -0.67546875 -42.59765625 -1.0234375 C-28.67558259 -8.79532038 -13.58754229 -7.31636892 0 0 Z " fill="#00AEBA" transform="translate(848.25,268.75)"/>
<path d="M0 0 C2.5712145 1.45193391 4.78691483 3.01265412 7.06640625 4.88671875 C7.74574219 5.43972656 8.42507813 5.99273437 9.125 6.5625 C15.41817806 12.25383567 17.4813857 18.82783175 18.140625 27.15234375 C17.98844407 32.75900977 17.13966657 39.81345843 13.06640625 43.88671875 C11.26005379 45.38436432 9.44577051 46.8714767 7.625 48.3515625 C5.80621627 49.91066112 5.80621627 49.91066112 5.06640625 52.88671875 C-2.50936587 56.97763569 -12.15783545 57.48407691 -20.43359375 55.1953125 C-22.45467071 54.25188009 -24.14268374 53.21347089 -25.93359375 51.88671875 C-26.5575 51.43941406 -27.18140625 50.99210937 -27.82421875 50.53125 C-32.12571966 47.16053605 -34.42968988 43.70905213 -36.93359375 38.88671875 C-37.59359375 38.22671875 -38.25359375 37.56671875 -38.93359375 36.88671875 C-40.97678086 30.81057407 -41.04256797 23.79684574 -38.76953125 17.83203125 C-31.14421653 3.40258956 -16.64125723 -6.3152574 0 0 Z M-38.93359375 20.88671875 C-37.93359375 23.88671875 -37.93359375 23.88671875 -37.93359375 23.88671875 Z " fill="#323086" transform="translate(987.93359375,337.11328125)"/>
<path d="M0 0 C1.38294718 0.01329757 2.76582404 0.03715018 4.1484375 0.0703125 C4.85484375 0.07933594 5.56125 0.08835937 6.2890625 0.09765625 C8.03399848 0.12123647 9.77876045 0.15710789 11.5234375 0.1953125 C23.5234375 30.38551423 23.5234375 30.38551423 23.5234375 36.1953125 C24.5134375 36.1953125 25.5034375 36.1953125 26.5234375 36.1953125 C26.84618652 35.1758252 27.16893555 34.15633789 27.50146484 33.10595703 C28.69919797 29.32824796 29.90500399 25.55315708 31.11328125 21.77880859 C31.6353501 20.14409674 32.15521946 18.50868076 32.67285156 16.87255859 C33.41676551 14.5225316 34.16852243 12.17514066 34.921875 9.828125 C35.152164 9.09473907 35.382453 8.36135315 35.61972046 7.60574341 C37.29569409 2.42305591 37.29569409 2.42305591 39.5234375 0.1953125 C42.08636067 0.02367519 44.52689607 -0.03733308 47.0859375 0.0078125 C47.78396484 0.00845703 48.48199219 0.00910156 49.20117188 0.00976562 C54.38312592 0.05500092 54.38312592 0.05500092 55.5234375 1.1953125 C55.61708756 2.9445997 55.64088188 4.69767504 55.63696289 6.44946289 C55.63688736 7.57054947 55.63681183 8.69163605 55.63673401 9.84669495 C55.63157272 11.0664653 55.62641144 12.28623566 55.62109375 13.54296875 C55.6196788 14.78453232 55.61826385 16.02609589 55.61680603 17.30528259 C55.61214341 20.61136741 55.60315247 23.91738396 55.59210205 27.22344971 C55.58188577 30.594924 55.57730795 33.96640533 55.57226562 37.33789062 C55.56121145 43.95705025 55.54445486 50.57617743 55.5234375 57.1953125 C53.71101698 57.22218529 51.89848517 57.24164965 50.0859375 57.2578125 C49.07660156 57.26941406 48.06726563 57.28101563 47.02734375 57.29296875 C44.5234375 57.1953125 44.5234375 57.1953125 43.5234375 56.1953125 C43.43499957 53.74700824 43.40814998 51.32710651 43.42578125 48.87890625 C43.4271962 48.14785172 43.42861115 47.41679718 43.43006897 46.66358948 C43.43568342 44.31995618 43.44823828 41.97641711 43.4609375 39.6328125 C43.46595064 38.04752742 43.47051387 36.46224084 43.47460938 34.87695312 C43.48565753 30.9830364 43.50293178 27.08919045 43.5234375 23.1953125 C42.8634375 23.1953125 42.2034375 23.1953125 41.5234375 23.1953125 C41.13671875 25.09023438 41.13671875 25.09023438 40.7421875 27.0234375 C39.53296302 32.46068981 37.81938209 37.67770934 36.0234375 42.9453125 C35.71535156 43.86441406 35.40726562 44.78351563 35.08984375 45.73046875 C33.67189546 49.93562869 32.19716635 54.08391973 30.5234375 58.1953125 C27.14480145 58.4805632 23.89503559 58.60994269 20.5234375 58.1953125 C18.5859375 56.2578125 18.5859375 56.2578125 17.5234375 53.1953125 C17.27335937 52.4940625 17.02328125 51.7928125 16.765625 51.0703125 C15.59318019 47.70095654 14.55970682 44.3326178 13.6484375 40.8828125 C12.4905282 37.51423304 12.4905282 37.51423304 7.5234375 34.1953125 C7.5234375 42.1153125 7.5234375 50.0353125 7.5234375 58.1953125 C3.2334375 58.1953125 -1.0565625 58.1953125 -5.4765625 58.1953125 C-7.01598758 55.11646234 -6.61854428 51.88164658 -6.609375 48.50390625 C-6.61033173 47.72580093 -6.61128845 46.94769562 -6.61227417 46.14601135 C-6.6129563 44.48739543 -6.61109975 42.82877685 -6.60693359 41.17016602 C-6.60169363 38.69475849 -6.60682001 36.21954164 -6.61328125 33.74414062 C-6.61792451 25.69041258 -6.49521808 17.64996481 -6.09375 9.60546875 C-6.06338654 8.88652939 -6.03302307 8.16759003 -6.0017395 7.42686462 C-5.70828511 2.34366856 -5.54306002 0.31140787 0 0 Z " fill="#292C2B" transform="translate(301.4765625,454.8046875)"/>
<path d="M0 0 C1.19496094 -0.02449219 2.38992188 -0.04898437 3.62109375 -0.07421875 C12.53356341 -0.10350397 19.18014226 1.48308536 26.8125 6.0625 C34.05362193 13.71740033 36.40881368 22.51316973 36.2578125 32.78125 C35.80482238 39.09565778 34.86411692 45.02620296 30 49.375 C29.38125 50.014375 28.7625 50.65375 28.125 51.3125 C21.9064524 57.34814914 18.42079196 58.5078721 9.828125 58.47265625 C8.8044986 58.47053383 8.8044986 58.47053383 7.76019287 58.46836853 C5.59008316 58.46279084 3.4200783 58.45024254 1.25 58.4375 C-0.22525892 58.43248211 -1.70051947 58.42791971 -3.17578125 58.42382812 C-6.78388798 58.41282875 -10.39193375 58.39557953 -14 58.375 C-14 54.415 -14 50.455 -14 46.375 C-14.66 46.045 -15.32 45.715 -16 45.375 C-15.90662619 39.28748312 -15.80056907 33.2003716 -15.68261719 27.11328125 C-15.64427315 25.04140319 -15.60942995 22.96945731 -15.578125 20.89746094 C-15.53259191 17.92358113 -15.47457882 14.95017038 -15.4140625 11.9765625 C-15.40251129 11.04631256 -15.39096008 10.11606262 -15.37905884 9.15762329 C-15.35918915 8.29688202 -15.33931946 7.43614075 -15.31884766 6.54931641 C-15.30552399 5.78986725 -15.29220032 5.03041809 -15.2784729 4.24795532 C-14.3275648 -2.14767021 -4.76590114 0.00501146 0 0 Z M16.05859375 29.34375 C15.31029297 29.74980469 14.56199219 30.15585937 13.79101562 30.57421875 C13.01435547 31.00347656 12.23769531 31.43273437 11.4375 31.875 C9.89656167 32.72245246 8.35368018 33.56638421 6.80859375 34.40625 C6.12595459 34.78330078 5.44331543 35.16035156 4.73999023 35.54882812 C3 36.375 3 36.375 1 36.375 C1 37.035 1 37.695 1 38.375 C0.34 38.375 -0.32 38.375 -1 38.375 C-1.33 37.385 -1.66 36.395 -2 35.375 C-2 39.005 -2 42.635 -2 46.375 C0.39614126 46.42925226 2.79103853 46.46879027 5.1875 46.5 C5.86103516 46.51675781 6.53457031 46.53351563 7.22851562 46.55078125 C12.28676712 46.60013005 16.03720621 46.29809684 19.73828125 42.671875 C21.38348726 39.67688697 21.74805159 37.00537235 22.1875 33.625 C22.34605469 32.45453125 22.50460937 31.2840625 22.66796875 30.078125 C22.83232422 28.74007813 22.83232422 28.74007813 23 27.375 C19.80323436 27.375 18.78458064 27.84055469 16.05859375 29.34375 Z " fill="#292B2A" transform="translate(721,454.625)"/>
<path d="M0 0 C4.93285433 2.73187224 9.68695419 6.60074378 12.8046875 11.27734375 C12.8046875 12.26734375 12.8046875 13.25734375 12.8046875 14.27734375 C13.4646875 14.27734375 14.1246875 14.27734375 14.8046875 14.27734375 C15.98301371 17.81232237 15.98866059 21.03627446 15.9921875 24.71484375 C16.00636719 26.03355469 16.02054688 27.35226563 16.03515625 28.7109375 C15.82697653 31.93243045 15.52637516 33.61655374 13.8046875 36.27734375 C13.1446875 36.27734375 12.4846875 36.27734375 11.8046875 36.27734375 C11.8046875 36.97859375 11.8046875 37.67984375 11.8046875 38.40234375 C10.25500882 42.85766996 6.75087288 44.89144089 2.8046875 47.27734375 C-3.79040052 50.45673472 -11.08313754 50.19569046 -18.0078125 48.15234375 C-23.03258165 45.19659719 -28.26756855 41.44395073 -31.1953125 36.27734375 C-31.1953125 34.95734375 -31.1953125 33.63734375 -31.1953125 32.27734375 C-31.8553125 32.27734375 -32.5153125 32.27734375 -33.1953125 32.27734375 C-35.03896494 26.74638642 -34.76239686 21.21210215 -33.1328125 15.65234375 C-29.69837992 9.66978377 -25.50209421 4.34550783 -19.1953125 1.27734375 C-18.3290625 0.75914062 -18.3290625 0.75914062 -17.4453125 0.23046875 C-12.31608648 -1.94232838 -5.25469621 -1.72974875 0 0 Z M-32.1953125 15.27734375 C-31.1953125 17.27734375 -31.1953125 17.27734375 -31.1953125 17.27734375 Z " fill="#323086" transform="translate(1073.1953125,157.72265625)"/>
<path d="M0 0 C5.97873264 0.11935764 5.97873264 0.11935764 7.08984375 1.23046875 C7.18349381 2.97975595 7.20728813 4.73283129 7.20336914 6.48461914 C7.20329361 7.60570572 7.20321808 8.7267923 7.20314026 9.8818512 C7.19797897 11.10162155 7.19281769 12.32139191 7.1875 13.578125 C7.18608505 14.81968857 7.1846701 16.06125214 7.18321228 17.34043884 C7.17854966 20.64652366 7.16955872 23.95254021 7.1585083 27.25860596 C7.14829202 30.63008025 7.1437142 34.00156158 7.13867188 37.37304688 C7.1276177 43.9922065 7.11086111 50.61133368 7.08984375 57.23046875 C5.65276285 57.28469822 4.21508913 57.32336598 2.77734375 57.35546875 C1.97683594 57.37867188 1.17632812 57.401875 0.3515625 57.42578125 C-1.91015625 57.23046875 -1.91015625 57.23046875 -4.91015625 55.23046875 C-5.71453125 55.72546875 -6.51890625 56.22046875 -7.34765625 56.73046875 C-12.41484504 58.86402193 -16.85066342 59.2341119 -22.125 57.50390625 C-27.31976695 55.12418061 -30.49584544 52.19184156 -32.9921875 46.96484375 C-35.2597489 40.21040555 -34.94321178 31.49058849 -32.0234375 24.9453125 C-29.07056627 20.3968547 -24.24830414 16.37435758 -18.91015625 15.23046875 C-13.33572419 15.25088792 -9.62165182 16.15306583 -4.91015625 19.23046875 C-4.86117188 18.02648437 -4.8121875 16.8225 -4.76171875 15.58203125 C-4.68669282 14.00648677 -4.61114492 12.43096709 -4.53515625 10.85546875 C-4.48875 9.664375 -4.48875 9.664375 -4.44140625 8.44921875 C-4.03654906 0.48702739 -4.03654906 0.48702739 0 0 Z " fill="#292C2B" transform="translate(444.91015625,454.76953125)"/>
<path d="M0 0 C1.45212891 -0.04253906 1.45212891 -0.04253906 2.93359375 -0.0859375 C5.5625 0.375 5.5625 0.375 7.07568359 2.03125 C8.78180177 4.72069738 9.86432712 7.35180408 10.98046875 10.3359375 C11.64985474 12.11218506 11.64985474 12.11218506 12.33276367 13.92431641 C12.80548807 15.19942854 13.27789381 16.47465885 13.75 17.75 C14.23698348 19.05272218 14.72437292 20.35529268 15.2121582 21.65771484 C16.43767065 24.93604241 17.65429796 28.21758918 18.86816406 31.50024414 C19.92783828 34.36143905 20.99628649 37.21936159 22.0625 40.078125 C22.79267874 42.05170918 23.52190832 44.02564491 24.25 46 C24.58862061 46.91056152 24.92724121 47.82112305 25.27612305 48.75927734 C25.58074463 49.59410645 25.88536621 50.42893555 26.19921875 51.2890625 C26.59693481 52.3711499 26.59693481 52.3711499 27.00268555 53.47509766 C27.5625 55.375 27.5625 55.375 27.5625 58.375 C23.6025 58.375 19.6425 58.375 15.5625 58.375 C15.2325 57.385 14.9025 56.395 14.5625 55.375 C13.9025 55.375 13.2425 55.375 12.5625 55.375 C11.24623308 51.75526598 10.5625 49.27932869 10.5625 45.375 C0.6625 45.87 0.6625 45.87 -9.4375 46.375 C-11.14448363 50.3579618 -12.8281404 54.35160101 -14.4375 58.375 C-18.7275 58.375 -23.0175 58.375 -27.4375 58.375 C-26.92596191 54.02692625 -26.11613478 50.40372348 -24.4375 46.375 C-24.4375 45.385 -24.4375 44.395 -24.4375 43.375 C-23.7775 43.375 -23.1175 43.375 -22.4375 43.375 C-22.30625732 42.64394043 -22.17501465 41.91288086 -22.03979492 41.15966797 C-21.48136872 38.57782393 -20.74778704 36.28132451 -19.80078125 33.8203125 C-19.47352051 32.96477783 -19.14625977 32.10924316 -18.80908203 31.2277832 C-18.45958496 30.32761475 -18.11008789 29.42744629 -17.75 28.5 C-17.39276855 27.57340576 -17.03553711 26.64681152 -16.66748047 25.69213867 C-15.59535644 22.91797585 -14.51670218 20.14641542 -13.4375 17.375 C-13.13021973 16.57884277 -12.82293945 15.78268555 -12.50634766 14.96240234 C-11.69777084 12.86834874 -10.88188763 10.77734307 -10.0625 8.6875 C-9.60101563 7.50800781 -9.13953125 6.32851563 -8.6640625 5.11328125 C-6.55957903 0.41505542 -4.92699873 0.06543159 0 0 Z M-0.4375 17.375 C-1.27911854 19.45500011 -2.11050763 21.53914146 -2.9375 23.625 C-3.4015625 24.78515625 -3.865625 25.9453125 -4.34375 27.140625 C-5.65106233 30.43748366 -5.65106233 30.43748366 -5.4375 34.375 C-1.8075 34.375 1.8225 34.375 5.5625 34.375 C4.96299704 30.69233897 4.31491109 27.02956815 3.5625 23.375 C2.9025 23.375 2.2425 23.375 1.5625 23.375 C1.8925 22.385 2.2225 21.395 2.5625 20.375 C2.2325 19.385 1.9025 18.395 1.5625 17.375 C0.9025 17.375 0.2425 17.375 -0.4375 17.375 Z M-5.4375 35.375 C-5.4375 35.705 -5.4375 36.035 -5.4375 36.375 C-1.1475 36.375 3.1425 36.375 7.5625 36.375 C7.5625 36.045 7.5625 35.715 7.5625 35.375 C3.2725 35.375 -1.0175 35.375 -5.4375 35.375 Z " fill="#2A2C2B" transform="translate(200.4375,454.625)"/>
<path d="M0 0 C0.80566406 0.00257813 1.61132812 0.00515625 2.44140625 0.0078125 C3.64603516 0.00394531 3.64603516 0.00394531 4.875 0 C7.00390625 0.1328125 7.00390625 0.1328125 9.00390625 1.1328125 C9.33390625 6.7428125 9.66390625 12.3528125 10.00390625 18.1328125 C12.31390625 16.8128125 14.62390625 15.4928125 17.00390625 14.1328125 C22.33154742 13.34531803 26.96185373 14.69303285 31.37890625 17.6953125 C36.61313941 22.21963954 38.75915183 26.03258985 39.30859375 32.9921875 C39.47728064 39.30485807 39.53522348 45.20845303 37.00390625 51.1328125 C35.00390625 52.2578125 35.00390625 52.2578125 33.00390625 53.1328125 C31.87040091 55.14951077 31.87040091 55.14951077 31.00390625 57.1328125 C28.01675487 58.62638819 24.96502689 58.35784685 21.69140625 58.3828125 C20.37527344 58.40859375 19.05914063 58.434375 17.703125 58.4609375 C13.89616789 58.12325598 12.04454573 57.36771192 9.00390625 55.1328125 C9.00390625 56.1228125 9.00390625 57.1128125 9.00390625 58.1328125 C5.37390625 58.1328125 1.74390625 58.1328125 -1.99609375 58.1328125 C-2.14912406 50.71830328 -2.29788847 43.30373848 -2.43905735 35.88899326 C-2.50477384 32.44636131 -2.57238996 29.00378816 -2.64428711 25.5612793 C-2.72678304 21.60736027 -2.8011252 17.65330865 -2.875 13.69921875 C-2.90203506 12.45757462 -2.92907013 11.21593048 -2.95692444 9.93666077 C-2.97702072 8.79555344 -2.997117 7.65444611 -3.01782227 6.47875977 C-3.03780777 5.4683815 -3.05779327 4.45800323 -3.0783844 3.41700745 C-2.97392669 0.517507 -2.88810438 0.1921635 0 0 Z M11.00390625 28.1328125 C8.94301261 31.30341809 8.73335179 33.89190109 8.75390625 37.6328125 C8.74875 38.57125 8.74359375 39.5096875 8.73828125 40.4765625 C9.01207179 43.21446787 9.51415137 44.83610706 11.00390625 47.1328125 C14.65746542 49.16256759 17.8662214 49.66102759 22.00390625 49.1328125 C24.63055862 47.5000286 25.71815932 46.17568452 26.5390625 43.1796875 C27.36924068 37.7215045 27.18237734 32.26550292 25.00390625 27.1328125 C19.59037999 22.55213643 16.27381283 24.09628831 11.00390625 28.1328125 Z " fill="#292B2A" transform="translate(908.99609375,454.8671875)"/>
<path d="M0 0 C6.78186556 5.05010478 11.33661795 11.12534234 14.5546875 18.90234375 C14.5546875 19.89234375 14.5546875 20.88234375 14.5546875 21.90234375 C-8.5453125 21.90234375 -31.6453125 21.90234375 -55.4453125 21.90234375 C-53.81630055 13.75728402 -49.31624416 7.91868806 -42.6328125 3.02734375 C-40.92658287 1.94851695 -39.19753032 0.90475061 -37.4453125 -0.09765625 C-36.34123047 -0.74927734 -36.34123047 -0.74927734 -35.21484375 -1.4140625 C-24.49829406 -6.70777982 -10.1778651 -5.99112558 0 0 Z " fill="#00AEBA" transform="translate(657.4453125,269.09765625)"/>
<path d="M0 0 C4.26820644 3.11907393 7.2691148 7.42843816 8.9296875 12.41015625 C8.9296875 15.38015625 8.9296875 18.35015625 8.9296875 21.41015625 C-4.4353125 21.90515625 -4.4353125 21.90515625 -18.0703125 22.41015625 C-19.50808273 26.2256253 -19.50808273 26.2256253 -17.8203125 28.66015625 C-13.49362906 31.41350026 -9.05682483 31.20555086 -4.0703125 30.41015625 C-1.81966148 28.49348704 -1.81966148 28.49348704 -0.0703125 26.41015625 C4.33172179 25.94678422 6.2091039 25.92976718 9.9296875 28.41015625 C2.84545697 38.68121388 2.84545697 38.68121388 -4.0703125 40.41015625 C-11.45976931 41.2861101 -17.76534776 40.53312112 -24.0703125 36.41015625 C-28.19361884 32.73043299 -30.64300081 28.33836582 -31.44140625 22.8671875 C-31.65075215 14.53029488 -29.56109459 8.08962926 -23.7578125 1.97265625 C-15.85376228 -2.62272179 -8.43538883 -4.57874218 0 0 Z " fill="#2A2C2B" transform="translate(396.0703125,472.58984375)"/>
<path d="M0 0 C2.02408755 0.09002398 4.04544287 0.24641038 6.0625 0.4375 C7.71958984 0.59025391 7.71958984 0.59025391 9.41015625 0.74609375 C10.26480469 0.82988281 11.11945312 0.91367187 12 1 C12.02505615 1.83772949 12.0501123 2.67545898 12.07592773 3.53857422 C12.17100357 6.64352256 12.27024025 9.74830181 12.37231445 12.85302734 C12.43698251 14.85894807 12.49683106 16.86502228 12.55664062 18.87109375 C12.61948242 20.75634766 12.61948242 20.75634766 12.68359375 22.6796875 C12.72025146 23.84226074 12.75690918 25.00483398 12.79467773 26.20263672 C12.81821659 28.9535501 12.81821659 28.9535501 14 31 C17.3 31 20.6 31 24 31 C25.39560045 28.20879909 25.21808288 25.79794308 25.31640625 22.6796875 C25.35830078 21.42285156 25.40019531 20.16601562 25.44335938 18.87109375 C25.48267578 17.55238281 25.52199219 16.23367188 25.5625 14.875 C25.60569512 13.53514249 25.64930973 12.19529844 25.69335938 10.85546875 C25.7997091 7.5704438 25.90038317 4.28523602 26 1 C30.62 1 35.24 1 40 1 C40 14.53 40 28.06 40 42 C36.04 42 32.08 42 28 42 C27.34 41.01 26.68 40.02 26 39 C25.49726562 39.72123047 25.49726562 39.72123047 24.984375 40.45703125 C21.12873151 43.45502176 15.62873252 42.79487247 10.91796875 42.62890625 C6.69551087 41.95112388 5.31443534 41.30386032 2.5625 38.125 C-0.60185521 33.51479058 -1.12785319 30.69484679 -1.1328125 25.05859375 C-1.13376923 24.37571793 -1.13472595 23.6928421 -1.13571167 22.98927307 C-1.13639223 21.54598905 -1.1345466 20.10270197 -1.13037109 18.65942383 C-1.12501282 16.44280172 -1.13032443 14.22638148 -1.13671875 12.00976562 C-1.13605811 10.60937455 -1.13477723 9.2089836 -1.1328125 7.80859375 C-1.13168457 6.52782959 -1.13055664 5.24706543 -1.12939453 3.92749023 C-1 1 -1 1 0 0 Z M0 28 C1 32 1 32 1 32 Z M17 33 C21 34 21 34 21 34 Z " fill="#2A2C2B" transform="translate(955,471)"/>
<path d="M0 0 C4.37648944 3.34881176 7.20766924 8.31050773 8.9296875 13.4765625 C8.9296875 16.1165625 8.9296875 18.7565625 8.9296875 21.4765625 C-0.3103125 21.8065625 -9.5503125 22.1365625 -19.0703125 22.4765625 C-18.7403125 24.4565625 -18.4103125 26.4365625 -18.0703125 28.4765625 C-13.64456657 31.42705979 -9.26630726 31.15259208 -4.0703125 30.4765625 C-1.81966148 28.55989329 -1.81966148 28.55989329 -0.0703125 26.4765625 C3.6796875 26.2265625 3.6796875 26.2265625 6.9296875 26.4765625 C7.8671875 28.5390625 7.8671875 28.5390625 7.9296875 31.4765625 C4.7490505 35.87471337 1.12669881 38.84858305 -4.0703125 40.4765625 C-12.40985289 41.42367844 -18.428 40.06820793 -25.3203125 35.1640625 C-29.57102635 31.00995578 -31.63692227 26.73260961 -32.19921875 20.75390625 C-31.86581353 14.86374742 -29.34561884 8.83592322 -25.9453125 4.0390625 C-18.50443895 -2.59302045 -8.97515317 -4.85426572 0 0 Z " fill="#2A2C2B" transform="translate(624.0703125,472.5234375)"/>
<path d="M0 0 C4.881697 2.89734307 8.93149073 6.9840752 11.484375 12.08984375 C11.77463192 15.16616676 11.76225126 18.25140618 11.796875 21.33984375 C11.82587891 22.18675781 11.85488281 23.03367187 11.88476562 23.90625 C11.94117988 29.48692154 11.34755041 32.77107577 7.484375 37.08984375 C3.22286096 41.22045804 -0.35315423 42.69572075 -6.28515625 42.67578125 C-7.45111328 42.63324219 -7.45111328 42.63324219 -8.640625 42.58984375 C-9.42566406 42.59242188 -10.21070313 42.595 -11.01953125 42.59765625 C-16.82788306 42.49970765 -20.22377877 41.32657544 -24.46484375 37.1875 C-25.32529297 36.18009766 -25.32529297 36.18009766 -26.203125 35.15234375 C-26.78449219 34.48332031 -27.36585937 33.81429687 -27.96484375 33.125 C-32.29515051 27.4421541 -32.23272867 22.06367691 -31.515625 15.08984375 C-29.85995777 9.42670924 -26.25757116 4.59330515 -21.515625 1.08984375 C-15.15512634 -2.10137195 -6.68297527 -2.41790876 0 0 Z M-16.515625 11.08984375 C-19.92684469 16.70414282 -19.68444408 21.80497713 -18.25390625 28.0234375 C-17.61562588 30.27516162 -17.61562588 30.27516162 -15.515625 32.08984375 C-13.22456748 32.66661243 -13.22456748 32.66661243 -10.640625 32.90234375 C-9.34511719 33.06669922 -9.34511719 33.06669922 -8.0234375 33.234375 C-4.91053391 33.0549709 -3.72694343 32.24662294 -1.515625 30.08984375 C0.61047433 23.71154575 0.17270287 16.23459317 -2.515625 10.08984375 C-7.67248009 7.04862152 -11.68183287 7.76661166 -16.515625 11.08984375 Z M-30.515625 15.08984375 C-29.515625 17.08984375 -29.515625 17.08984375 -29.515625 17.08984375 Z M0.484375 20.08984375 C1.484375 23.08984375 1.484375 23.08984375 1.484375 23.08984375 Z " fill="#292B2A" transform="translate(1059.515625,470.91015625)"/>
<path d="M0 0 C3.0625 2.5 3.0625 2.5 5 5 C5 5.99 5 6.98 5 8 C5.66 8 6.32 8 7 8 C6.67 9.32 6.34 10.64 6 12 C2.61846078 12.2954743 -0.62780926 12.44370931 -4 12 C-5.68711423 10.3540349 -7.3545622 8.68762851 -9 7 C-12.04386585 6.55998538 -14.94644997 6.70063235 -18 7 C-17.85001984 8.9738938 -17.85001984 8.9738938 -17 11 C-14.99259006 12.04212603 -14.99259006 12.04212603 -12.5 12.5625 C-11.14841797 12.92408203 -11.14841797 12.92408203 -9.76953125 13.29296875 C-8.85558594 13.52628906 -7.94164062 13.75960938 -7 14 C-1.19217497 15.5773214 3.40587872 16.83345065 7 22 C8.13087297 26.11907373 8.30586199 29.72094079 7.3125 33.875 C5.81604282 36.29783543 4.39180889 37.4779398 2 39 C1.01 39.66 0.02 40.32 -1 41 C-8.15483357 42.18039839 -17.42957496 42.72301802 -24.02734375 39.5390625 C-26.95507338 36.95480953 -28.83941563 34.24087655 -31 31 C-30.48275862 27.48275862 -30.48275862 27.48275862 -29 26 C-25.75 25.625 -25.75 25.625 -22 26 C-19.25 28.4375 -19.25 28.4375 -17 31 C-13.52674819 32.1577506 -10.63932552 32.06866652 -7 32 C-6.34 30.02 -5.68 28.04 -5 26 C-6.134375 25.79246094 -7.26875 25.58492188 -8.4375 25.37109375 C-25.17422731 22.0530524 -25.17422731 22.0530524 -30 15 C-31.31201356 11.50129717 -31.67053508 9.63335469 -30.23828125 6.14453125 C-23.61442538 -4.75577894 -10.48043464 -5.04096951 0 0 Z M-15 -2 C-15 -1.67 -15 -1.34 -15 -1 C-13.02 -1 -11.04 -1 -9 -1 C-9 -1.33 -9 -1.66 -9 -2 C-10.98 -2 -12.96 -2 -15 -2 Z M-4 28 C-3 31 -3 31 -3 31 Z " fill="#292B2A" transform="translate(813,472)"/>
<path d="M0 0 C4.05930878 5.41241171 4.12777601 11.14482916 4.09765625 17.7109375 C4.09443359 18.95488281 4.09121094 20.19882812 4.08789062 21.48046875 C4.07532227 23.40826172 4.07532227 23.40826172 4.0625 25.375 C4.05798828 26.68339844 4.05347656 27.99179687 4.04882812 29.33984375 C4.03707594 32.55994281 4.02064543 35.7799477 4 39 C2.35425434 39.02688151 0.70838587 39.04634123 -0.9375 39.0625 C-2.31228516 39.07990234 -2.31228516 39.07990234 -3.71484375 39.09765625 C-6 39 -6 39 -7 38 C-7.12152317 36.21759746 -7.1796875 34.43079834 -7.2109375 32.64453125 C-7.23929688 31.54689453 -7.26765625 30.44925781 -7.296875 29.31835938 C-7.3485197 27.00080363 -7.39291724 24.68307384 -7.4296875 22.36523438 C-7.64701383 14.22641187 -7.64701383 14.22641187 -11 7 C-14.54865136 6.91934883 -17.58389775 7.05685873 -21 8 C-22.7582374 14.91144538 -23.39893235 21.44607892 -23.625 28.5625 C-23.68300781 30.07553711 -23.68300781 30.07553711 -23.7421875 31.61914062 C-23.83546203 34.0792564 -23.92125516 36.53938366 -24 39 C-25.64574566 39.02688151 -27.29161413 39.04634123 -28.9375 39.0625 C-29.85402344 39.07410156 -30.77054688 39.08570313 -31.71484375 39.09765625 C-34 39 -34 39 -35 38 C-35.1134515 35.21176262 -35.16418263 32.44922655 -35.16796875 29.66015625 C-35.17129715 28.82286484 -35.17462555 27.98557343 -35.17805481 27.12290955 C-35.18312756 25.34830272 -35.18546303 23.57368633 -35.18530273 21.79907227 C-35.18748797 19.07747744 -35.20563633 16.35628857 -35.22460938 13.63476562 C-35.22754342 11.91406389 -35.22952814 10.19336023 -35.23046875 8.47265625 C-35.23765427 7.65491226 -35.24483978 6.83716827 -35.25224304 5.99464417 C-35.22882204 0.22882204 -35.22882204 0.22882204 -33 -2 C-27.81034483 -2.49425287 -27.81034483 -2.49425287 -25 -2 C-23 0 -23 0 -22 2 C-21.0925 1.360625 -20.185 0.72125 -19.25 0.0625 C-13.51335141 -3.57806545 -5.81715965 -4.30900715 0 0 Z " fill="#2A2C2B" transform="translate(582,473)"/>
<path d="M0 0 C3.15730624 1.96988455 5.21702358 4.77910036 6.796875 8.12109375 C6.796875 9.11109375 6.796875 10.10109375 6.796875 11.12109375 C5.1941968 11.22934218 3.58941752 11.3068002 1.984375 11.37109375 C1.09105469 11.4175 0.19773437 11.46390625 -0.72265625 11.51171875 C-3.203125 11.12109375 -3.203125 11.12109375 -4.87890625 9.16015625 C-5.31589844 8.48726563 -5.75289062 7.814375 -6.203125 7.12109375 C-9.24621225 5.99995634 -10.81702084 6.01579261 -13.953125 6.87109375 C-16.5281895 7.97007953 -16.5281895 7.97007953 -17.203125 11.12109375 C-15.965625 11.53359375 -14.728125 11.94609375 -13.453125 12.37109375 C-12.63972656 12.64695312 -11.82632813 12.9228125 -10.98828125 13.20703125 C-9.02777475 13.85045134 -7.05482299 14.45655276 -5.07421875 15.03515625 C-0.75896884 16.3376734 2.92197746 17.4649206 6.546875 20.18359375 C8.51798835 24.81571013 8.64421146 29.17829774 7.796875 34.12109375 C5.40614668 37.67096307 3.5833772 38.79076283 -0.328125 40.43359375 C-8.22678583 41.83496906 -16.76606839 42.27729895 -23.92578125 38.12109375 C-27.21899026 35.75434307 -28.16672791 34.27968108 -29.078125 30.30859375 C-29.119375 29.25671875 -29.160625 28.20484375 -29.203125 27.12109375 C-26.24647981 25.64277115 -23.46082763 26.06076592 -20.203125 26.12109375 C-19.935 26.73984375 -19.666875 27.35859375 -19.390625 27.99609375 C-18.24755652 30.42061705 -18.24755652 30.42061705 -15.203125 32.12109375 C-12.45794179 32.36297026 -12.45794179 32.36297026 -9.515625 32.24609375 C-8.52175781 32.22804688 -7.52789063 32.21 -6.50390625 32.19140625 C-5.74464844 32.16820312 -4.98539063 32.145 -4.203125 32.12109375 C-4.203125 29.81109375 -4.203125 27.50109375 -4.203125 25.12109375 C-5.34910156 24.89035156 -6.49507812 24.65960938 -7.67578125 24.421875 C-9.20591634 24.09331839 -10.73585414 23.76384205 -12.265625 23.43359375 C-13.01779297 23.28470703 -13.76996094 23.13582031 -14.54492188 22.98242188 C-20.14454977 21.74614039 -23.81814504 19.85287074 -28.203125 16.12109375 C-29.72873611 11.78514637 -29.42845298 9.75415807 -27.890625 5.43359375 C-22.12610872 -3.39207945 -8.85650002 -3.70201701 0 0 Z " fill="#2A2C2B" transform="translate(668.203125,471.87890625)"/>
<path d="M0 0 C3.45253622 2.3695163 5.48328616 5.56456605 7.0546875 9.41015625 C7.0546875 10.40015625 7.0546875 11.39015625 7.0546875 12.41015625 C5.45135959 12.49137549 3.84684724 12.54944759 2.2421875 12.59765625 C1.34886719 12.63246094 0.45554687 12.66726563 -0.46484375 12.703125 C-2.9453125 12.41015625 -2.9453125 12.41015625 -4.76953125 11.0234375 C-5.9453125 9.41015625 -5.9453125 9.41015625 -5.9453125 7.41015625 C-11.9716474 6.83727639 -11.9716474 6.83727639 -17.3828125 9.03515625 C-20.73289034 14.12727456 -21.36972095 18.41516504 -20.46875 24.3515625 C-20.00220343 26.58424746 -20.00220343 26.58424746 -18.4453125 28.97265625 C-14.68617699 31.13415917 -11.15981436 31.47348361 -6.9453125 30.41015625 C-4.43103028 27.59837768 -4.43103028 27.59837768 -2.9453125 24.41015625 C0.03681663 22.91909168 2.77078408 23.29074158 6.0546875 23.41015625 C6.3846875 23.74015625 6.7146875 24.07015625 7.0546875 24.41015625 C6.94350918 29.96907248 5.43403341 33.04856834 1.7109375 36.96484375 C-2.77712498 40.88131337 -8.35035351 40.9019938 -14.05859375 40.79296875 C-20.14021553 39.98647493 -25.09017184 37.21891839 -29.4453125 32.97265625 C-32.72843788 27.36398372 -34.0566289 21.83434493 -32.9453125 15.41015625 C-30.86188688 9.69869636 -28.55546503 4.81903971 -23.9453125 0.78515625 C-15.47168966 -3.09858755 -8.52198055 -4.11355117 0 0 Z " fill="#2A2C2B" transform="translate(512.9453125,472.58984375)"/>
<path d="M0 0 C0.7940625 0.01417969 1.588125 0.02835937 2.40625 0.04296875 C3.59734375 0.05263672 3.59734375 0.05263672 4.8125 0.0625 C6.90625 0.23046875 6.90625 0.23046875 8.90625 1.23046875 C9.3203125 3.953125 9.3203125 3.953125 9.53125 7.29296875 C9.60601563 8.39769531 9.68078125 9.50242187 9.7578125 10.640625 C9.80679688 11.49527344 9.85578125 12.34992188 9.90625 13.23046875 C12.21625 13.56046875 14.52625 13.89046875 16.90625 14.23046875 C16.90625 16.87046875 16.90625 19.51046875 16.90625 22.23046875 C14.26625 22.23046875 11.62625 22.23046875 8.90625 22.23046875 C8.90625 29.82046875 8.90625 37.41046875 8.90625 45.23046875 C10.88625 45.23046875 12.86625 45.23046875 14.90625 45.23046875 C15.56625 45.56046875 16.22625 45.89046875 16.90625 46.23046875 C16.90625 49.20046875 16.90625 52.17046875 16.90625 55.23046875 C14.50850255 55.3661903 12.11849755 55.46483743 9.71875 55.54296875 C8.70844727 55.60581055 8.70844727 55.60581055 7.67773438 55.66992188 C3.73240958 55.76614931 2.10115539 55.38582058 -1.01953125 52.8984375 C-4.09587476 48.94148342 -4.21517092 46.12175726 -4.19140625 41.25 C-4.18818359 40.08662109 -4.18496094 38.92324219 -4.18164062 37.72460938 C-4.17326172 36.50966797 -4.16488281 35.29472656 -4.15625 34.04296875 C-4.15173828 32.81642578 -4.14722656 31.58988281 -4.14257812 30.32617188 C-4.13078065 27.29422207 -4.11431921 24.26236969 -4.09375 21.23046875 C-5.74375 21.56046875 -7.39375 21.89046875 -9.09375 22.23046875 C-9.09375 18.93046875 -9.09375 15.63046875 -9.09375 12.23046875 C-7.44375 12.23046875 -5.79375 12.23046875 -4.09375 12.23046875 C-4.11695313 11.53179687 -4.14015625 10.833125 -4.1640625 10.11328125 C-4.19113281 8.74816406 -4.19113281 8.74816406 -4.21875 7.35546875 C-4.24195313 6.45054687 -4.26515625 5.545625 -4.2890625 4.61328125 C-4.03070034 1.46126287 -3.20059765 0.35230459 0 0 Z " fill="#2A2C2B" transform="translate(833.09375,457.76953125)"/>
<path d="M0 0 C0.70125 0.01417969 1.4025 0.02835937 2.125 0.04296875 C3.176875 0.05263672 3.176875 0.05263672 4.25 0.0625 C6.125 0.23046875 6.125 0.23046875 8.125 1.23046875 C8.125 4.86046875 8.125 8.49046875 8.125 12.23046875 C9.23875 12.18921875 10.3525 12.14796875 11.5 12.10546875 C15.125 12.23046875 15.125 12.23046875 17.125 14.23046875 C17.25 17.85546875 17.25 17.85546875 17.125 21.23046875 C15.4234375 21.44703125 15.4234375 21.44703125 13.6875 21.66796875 C10.31722799 21.84218353 10.31722799 21.84218353 9.125 23.23046875 C9.03799658 24.86519757 9.01798937 26.5036093 9.02734375 28.140625 C9.03217773 29.6246582 9.03217773 29.6246582 9.03710938 31.13867188 C9.04548828 32.17958984 9.05386719 33.22050781 9.0625 34.29296875 C9.06701172 35.33775391 9.07152344 36.38253906 9.07617188 37.45898438 C9.08800087 40.04953535 9.10448311 42.63997434 9.125 45.23046875 C9.888125 45.18921875 10.65125 45.14796875 11.4375 45.10546875 C14.125 45.23046875 14.125 45.23046875 17.125 47.23046875 C17.53343923 49.94250527 17.25836867 52.47418295 17.125 55.23046875 C3.59090595 56.1497657 3.59090595 56.1497657 0.05078125 53.9296875 C-1.25 52.29296875 -1.25 52.29296875 -2.875 49.23046875 C-3.205 48.90046875 -3.535 48.57046875 -3.875 48.23046875 C-3.96258003 46.23081893 -3.98196576 44.22810765 -3.97265625 42.2265625 C-3.96943359 41.01162109 -3.96621094 39.79667969 -3.96289062 38.54492188 C-3.95451172 37.26552734 -3.94613281 35.98613281 -3.9375 34.66796875 C-3.93298828 33.38470703 -3.92847656 32.10144531 -3.92382812 30.77929688 C-3.91199545 27.59630853 -3.89551068 24.41341113 -3.875 21.23046875 C-5.525 21.56046875 -7.175 21.89046875 -8.875 22.23046875 C-11.16904844 18.78939609 -11.13793056 17.26207066 -10.875 13.23046875 C-9.875 12.23046875 -9.875 12.23046875 -6.8125 12.16796875 C-5.3584375 12.19890625 -5.3584375 12.19890625 -3.875 12.23046875 C-3.89820313 11.53179687 -3.92140625 10.833125 -3.9453125 10.11328125 C-3.97238281 8.74816406 -3.97238281 8.74816406 -4 7.35546875 C-4.02320313 6.45054687 -4.04640625 5.545625 -4.0703125 4.61328125 C-3.82526161 1.62366043 -3.08694437 0.37943691 0 0 Z M-8.875 13.23046875 C-8.875 13.56046875 -8.875 13.89046875 -8.875 14.23046875 C-6.895 14.23046875 -4.915 14.23046875 -2.875 14.23046875 C-2.875 13.90046875 -2.875 13.57046875 -2.875 13.23046875 C-4.855 13.23046875 -6.835 13.23046875 -8.875 13.23046875 Z " fill="#2A2C2B" transform="translate(1007.875,457.76953125)"/>
<path d="M0 0 C0 3.63 0 7.26 0 11 C-1.4025 11.12375 -2.805 11.2475 -4.25 11.375 C-7.57613573 11.66848256 -10.25181258 12.01790023 -13 14 C-13.92454009 17.49827014 -14.17540187 20.91384784 -14.31640625 24.51953125 C-14.35830078 25.54111328 -14.40019531 26.56269531 -14.44335938 27.61523438 C-14.50233398 29.19788086 -14.50233398 29.19788086 -14.5625 30.8125 C-14.60568359 31.88693359 -14.64886719 32.96136719 -14.69335938 34.06835938 C-14.79910902 36.71210051 -14.90002703 39.35603412 -15 42 C-18.96 42 -22.92 42 -27 42 C-28.66577625 38.66844749 -28.12007856 34.93463941 -28.09765625 31.2734375 C-28.0962413 30.41062164 -28.09482635 29.54780579 -28.09336853 28.65884399 C-28.08776188 25.8975277 -28.07520827 23.13629188 -28.0625 20.375 C-28.05748586 18.5052095 -28.0529228 16.63541774 -28.04882812 14.765625 C-28.03779029 10.17705223 -28.0205212 5.58853977 -28 1 C-25.44165689 -0.27917156 -23.83998712 -0.03127808 -21 0.1875 C-20.113125 0.24292969 -19.22625 0.29835938 -18.3125 0.35546875 C-16 1 -16 1 -14.6875 3.05078125 C-14.3471875 4.01564453 -14.3471875 4.01564453 -14 5 C-13.13375 3.824375 -13.13375 3.824375 -12.25 2.625 C-8.20357407 -2.09583025 -5.49761649 -2.74880825 0 0 Z " fill="#292B2A" transform="translate(882,471)"/>
<path d="M0 0 C0.70125 0.01417969 1.4025 0.02835937 2.125 0.04296875 C3.176875 0.05263672 3.176875 0.05263672 4.25 0.0625 C6.125 0.23046875 6.125 0.23046875 8.125 1.23046875 C8.125 20.04046875 8.125 38.85046875 8.125 58.23046875 C4.495 58.23046875 0.865 58.23046875 -2.875 58.23046875 C-4.1429188 55.69463116 -4.0088601 53.91669575 -4.02026367 51.078125 C-4.02664352 50.00361084 -4.03302338 48.92909668 -4.03959656 47.82202148 C-4.04070938 46.65743408 -4.0418222 45.49284668 -4.04296875 44.29296875 C-4.04629715 43.10195557 -4.04962555 41.91094238 -4.05305481 40.68383789 C-4.0581246 38.16195055 -4.06046312 35.64005649 -4.06030273 33.11816406 C-4.06249086 29.2466333 -4.08065084 25.37538661 -4.09960938 21.50390625 C-4.10254287 19.05859473 -4.10452796 16.61328185 -4.10546875 14.16796875 C-4.11265427 13.00338135 -4.11983978 11.83879395 -4.12724304 10.63891602 C-4.12416641 9.56440186 -4.12108978 8.4898877 -4.11791992 7.3828125 C-4.11934494 6.43398193 -4.12076996 5.48515137 -4.12223816 4.50756836 C-3.80505087 1.58622705 -3.0092579 0.36988795 0 0 Z " fill="#2A2C2B" transform="translate(255.875,454.76953125)"/>
<path d="M0 0 C0.80566406 0.00257813 1.61132812 0.00515625 2.44140625 0.0078125 C3.64603516 0.00394531 3.64603516 0.00394531 4.875 0 C7.00390625 0.1328125 7.00390625 0.1328125 9.00390625 1.1328125 C9.00390625 19.9428125 9.00390625 38.7528125 9.00390625 58.1328125 C5.37390625 58.1328125 1.74390625 58.1328125 -1.99609375 58.1328125 C-2.14912406 50.71830328 -2.29788847 43.30373848 -2.43905735 35.88899326 C-2.50477384 32.44636131 -2.57238996 29.00378816 -2.64428711 25.5612793 C-2.72678304 21.60736027 -2.8011252 17.65330865 -2.875 13.69921875 C-2.90203506 12.45757462 -2.92907013 11.21593048 -2.95692444 9.93666077 C-2.97702072 8.79555344 -2.997117 7.65444611 -3.01782227 6.47875977 C-3.03780777 5.4683815 -3.05779327 4.45800323 -3.0783844 3.41700745 C-2.97392669 0.517507 -2.88810438 0.1921635 0 0 Z " fill="#2A2C2B" transform="translate(234.99609375,454.8671875)"/>
<path d="M0 0 C0 3.63 0 7.26 0 11 C-1.381875 11.12375 -2.76375 11.2475 -4.1875 11.375 C-9.34685247 11.89723735 -9.34685247 11.89723735 -14 14 C-15.48218791 19.65841547 -15.11118375 25.57039859 -15.0625 31.375 C-15.05798828 32.39722656 -15.05347656 33.41945313 -15.04882812 34.47265625 C-15.03710317 36.98179623 -15.01916965 39.49090586 -15 42 C-18.96 42 -22.92 42 -27 42 C-27.495 21.21 -27.495 21.21 -28 0 C-24.04 0.33 -20.08 0.66 -16 1 C-15.01 2.485 -15.01 2.485 -14 4 C-13.3503125 3.0409375 -13.3503125 3.0409375 -12.6875 2.0625 C-9.13264463 -2.28232323 -4.95492746 -0.73105487 0 0 Z M-16 5 C-15 7 -15 7 -15 7 Z " fill="#292B2A" transform="translate(1106,471)"/>
<path d="M0 0 C4.29 0 8.58 0 13 0 C12.67 13.53 12.34 27.06 12 41 C8.37 41 4.74 41 1 41 C-0.66577625 37.66844749 -0.12007856 33.93463941 -0.09765625 30.2734375 C-0.0962413 29.41062164 -0.09482635 28.54780579 -0.09336853 27.65884399 C-0.08776188 24.8975277 -0.07520827 22.13629188 -0.0625 19.375 C-0.05748586 17.5052095 -0.0529228 15.63541774 -0.04882812 13.765625 C-0.03779029 9.17705223 -0.0205212 4.58853977 0 0 Z " fill="#2A2C2B" transform="translate(764,472)"/>
<path d="M0 0 C4.82553765 0.09812696 8.28049856 0.33537392 12.25 3.3125 C16.09551567 7.76520236 16.42718517 10.56079663 16.25 16.3125 C13.17043712 17.96546119 10.08573921 19.60860171 7 21.25 C6.12730469 21.71857422 5.25460937 22.18714844 4.35546875 22.66992188 C3.51113281 23.11787109 2.66679688 23.56582031 1.796875 24.02734375 C1.02182617 24.44105225 0.24677734 24.85476074 -0.55175781 25.28100586 C-2.6206075 26.2517844 -4.5190269 26.84808429 -6.75 27.3125 C-8.28815394 22.69803817 -7.93443162 18.08269697 -7.9375 13.25 C-7.94974609 12.23099609 -7.96199219 11.21199219 -7.97460938 10.16210938 C-7.97654297 9.18951172 -7.97847656 8.21691406 -7.98046875 7.21484375 C-7.98457764 6.32273193 -7.98868652 5.43062012 -7.99291992 4.51147461 C-7.45137594 -0.390723 -4.11821978 0.01536649 0 0 Z " fill="#00AEBA" transform="translate(726.75,465.6875)"/>
<path d="M0 0 C3.63 0 7.26 0 11 0 C11 13.53 11 27.06 11 41 C7.37 41 3.74 41 0 41 C0 27.47 0 13.94 0 0 Z " fill="#2A2C2B" transform="translate(887,472)"/>
<path d="M0 0 C5.97873264 0.11935764 5.97873264 0.11935764 7.08984375 1.23046875 C7.17852674 4.18752196 7.20504671 7.12111931 7.1875 10.078125 C7.18608505 10.96455185 7.1846701 11.8509787 7.18321228 12.76426697 C7.1775959 15.60720129 7.16504066 18.45005806 7.15234375 21.29296875 C7.14733086 23.21549366 7.14276759 25.13801979 7.13867188 27.06054688 C7.12762116 31.78388424 7.11034558 36.50716333 7.08984375 41.23046875 C5.44409809 41.25735026 3.79822962 41.27680998 2.15234375 41.29296875 C1.23582031 41.30457031 0.31929687 41.31617188 -0.625 41.328125 C-2.91015625 41.23046875 -2.91015625 41.23046875 -3.91015625 40.23046875 C-4.02360775 37.44223137 -4.07433888 34.6796953 -4.078125 31.890625 C-4.0814534 31.05333359 -4.0847818 30.21604218 -4.08821106 29.3533783 C-4.09328381 27.57877147 -4.09561928 25.80415508 -4.09545898 24.02954102 C-4.09764422 21.30794619 -4.11579258 18.58675732 -4.13476562 15.86523438 C-4.13769967 14.14453264 -4.13968439 12.42382898 -4.140625 10.703125 C-4.14781052 9.88538101 -4.15499603 9.06763702 -4.16239929 8.22511292 C-4.13101317 0.4984249 -4.13101317 0.4984249 0 0 Z " fill="#2A2C2B" transform="translate(530.91015625,470.76953125)"/>
<path d="M0 0 C5.97873264 0.11935764 5.97873264 0.11935764 7.08984375 1.23046875 C7.17852674 4.18752196 7.20504671 7.12111931 7.1875 10.078125 C7.18608505 10.96455185 7.1846701 11.8509787 7.18321228 12.76426697 C7.1775959 15.60720129 7.16504066 18.45005806 7.15234375 21.29296875 C7.14733086 23.21549366 7.14276759 25.13801979 7.13867188 27.06054688 C7.12762116 31.78388424 7.11034558 36.50716333 7.08984375 41.23046875 C5.44409809 41.25735026 3.79822962 41.27680998 2.15234375 41.29296875 C1.23582031 41.30457031 0.31929688 41.31617188 -0.625 41.328125 C-2.91015625 41.23046875 -2.91015625 41.23046875 -3.91015625 40.23046875 C-4.02360775 37.44223137 -4.07433888 34.6796953 -4.078125 31.890625 C-4.0814534 31.05333359 -4.0847818 30.21604218 -4.08821106 29.3533783 C-4.09328381 27.57877147 -4.09561928 25.80415508 -4.09545898 24.02954102 C-4.09764422 21.30794619 -4.11579258 18.58675732 -4.13476562 15.86523438 C-4.13769967 14.14453264 -4.13968439 12.42382898 -4.140625 10.703125 C-4.14781052 9.88538101 -4.15499603 9.06763702 -4.16239929 8.22511292 C-4.13101317 0.4984249 -4.13101317 0.4984249 0 0 Z " fill="#2A2C2B" transform="translate(464.91015625,470.76953125)"/>
<path d="M0 0 C2.99909111 2.10574482 3.74488445 2.70671009 5 6 C6.58542766 18.80858665 6.58542766 18.80858665 3.2421875 23.4296875 C-0.424416 25.99758751 -3.69727008 25.7299274 -8 25 C-11.12463417 23.47092371 -12.43047069 22.23734023 -13.8828125 19.08203125 C-15.62992296 13.40894268 -14.57533076 9.44600133 -12.3359375 4.06640625 C-9.40608241 -0.46544562 -5.06937745 -0.71149157 0 0 Z " fill="#00AEBA" transform="translate(436,479)"/>
<path d="M0 0 C0.33 0 0.66 0 1 0 C1 70.62 1 141.24 1 214 C0.67 214 0.34 214 0 214 C0 143.38 0 72.76 0 0 Z " fill="#333187" transform="translate(188,173)"/>
<path d="M0 0 C0.33 0 0.66 0 1 0 C1 51.81 1 103.62 1 157 C0.67 157 0.34 157 0 157 C0 105.19 0 53.38 0 0 Z " fill="#333187" transform="translate(1124,230)"/>
<path d="M0 0 C0.33 0 0.66 0 1 0 C1 51.81 1 103.62 1 157 C0.67 157 0.34 157 0 157 C0 105.19 0 53.38 0 0 Z " fill="#333187" transform="translate(1040,230)"/>
<path d="M0 0 C2.21069413 2.41118668 3.62768879 5.04425278 5 8 C1.81175432 9.59412284 -1.62896662 9.10174735 -5.125 9.0625 C-5.87910156 9.05798828 -6.63320313 9.05347656 -7.41015625 9.04882812 C-9.27347127 9.03703499 -11.13674555 9.01909942 -13 9 C-13.33 8.01 -13.66 7.02 -14 6 C-10.38060572 0.75811863 -6.54856818 -1.81556862 0 0 Z " fill="#00AEBA" transform="translate(618,479)"/>
<path d="M0 0 C4 4.6 4 4.6 4 8 C-1.61 8 -7.22 8 -13 8 C-13.33 7.34 -13.66 6.68 -14 6 C-9.96839756 0.75891683 -6.88095857 -1.48226183 0 0 Z " fill="#00AEBA" transform="translate(390,479)"/>
<path d="M0 0 C2.01822917 0.06510417 4.03645833 0.13020833 6.0546875 0.1953125 C7.37095442 3.81504652 8.0546875 6.29098381 8.0546875 10.1953125 C3.7381953 10.95704642 0.31035297 11.35594854 -3.9453125 10.1953125 C-4.140625 4.140625 -4.140625 4.140625 -3.9453125 2.1953125 C-1.9453125 0.1953125 -1.9453125 0.1953125 0 0 Z " fill="#292D2C" transform="translate(767.9453125,454.8046875)"/>
<path d="M0 0 C0.80566406 0.00257813 1.61132812 0.00515625 2.44140625 0.0078125 C3.64603516 0.00394531 3.64603516 0.00394531 4.875 0 C7.00390625 0.1328125 7.00390625 0.1328125 9.00390625 1.1328125 C9.00390625 4.1028125 9.00390625 7.0728125 9.00390625 10.1328125 C5.37390625 10.1328125 1.74390625 10.1328125 -1.99609375 10.1328125 C-2.875 3.19921875 -2.875 3.19921875 -2.99609375 1.1328125 C-1.99609375 0.1328125 -1.99609375 0.1328125 0 0 Z " fill="#2A2C2B" transform="translate(888.99609375,454.8671875)"/>
<path d="M0 0 C5.97873264 0.11935764 5.97873264 0.11935764 7.08984375 1.23046875 C7.16164339 2.74974913 7.17376382 4.27214357 7.15234375 5.79296875 C7.14332031 6.61925781 7.13429688 7.44554687 7.125 8.296875 C7.11339844 8.93496094 7.10179687 9.57304687 7.08984375 10.23046875 C5.44409809 10.25735026 3.79822962 10.27680998 2.15234375 10.29296875 C1.23582031 10.30457031 0.31929688 10.31617188 -0.625 10.328125 C-2.91015625 10.23046875 -2.91015625 10.23046875 -3.91015625 9.23046875 C-4.09765625 5.79296875 -4.09765625 5.79296875 -3.91015625 2.23046875 C-1.91015625 0.23046875 -1.91015625 0.23046875 0 0 Z " fill="#2A2C2B" transform="translate(464.91015625,454.76953125)"/>
<path d="M0 0 C5.97873264 0.11935764 5.97873264 0.11935764 7.08984375 1.23046875 C7.16164339 2.74974913 7.17376382 4.27214357 7.15234375 5.79296875 C7.14332031 6.61925781 7.13429688 7.44554687 7.125 8.296875 C7.11339844 8.93496094 7.10179687 9.57304687 7.08984375 10.23046875 C5.63161163 10.25747305 4.173237 10.27686662 2.71484375 10.29296875 C1.90273438 10.30457031 1.090625 10.31617188 0.25390625 10.328125 C-1.91015625 10.23046875 -1.91015625 10.23046875 -3.91015625 9.23046875 C-4.03515625 5.85546875 -4.03515625 5.85546875 -3.91015625 2.23046875 C-1.91015625 0.23046875 -1.91015625 0.23046875 0 0 Z " fill="#2A2C2B" transform="translate(530.91015625,454.76953125)"/>
<path d="M0 0 C3.69508409 2.46338939 4.38672424 4.98277321 5.75 9 C5.98332031 9.64195312 6.21664063 10.28390625 6.45703125 10.9453125 C7.03806231 12.60838344 7.52593266 14.30333793 8 16 C7.67 16.66 7.34 17.32 7 18 C4.15132412 16.34311709 1.95382246 14.67365179 0 12 C-0.6154324 7.93504314 -0.41589121 4.07969476 0 0 Z " fill="#00AEBA" transform="translate(307,475)"/>
<path d="M0 0 C0.33 0 0.66 0 1 0 C1 17.82 1 35.64 1 54 C0.67 54 0.34 54 0 54 C0 36.18 0 18.36 0 0 Z " fill="#2A2C2B" transform="translate(905,457)"/>
<path d="M0 0 C0.33 0 0.66 0 1 0 C1 17.82 1 35.64 1 54 C0.67 54 0.34 54 0 54 C0 36.18 0 18.36 0 0 Z " fill="#2A2C2B" transform="translate(231,457)"/>
<path d="M0 0 C13.86 0 27.72 0 42 0 C42 0.33 42 0.66 42 1 C28.14 1 14.28 1 0 1 C0 0.67 0 0.34 0 0 Z " fill="#333187" transform="translate(1043,227)"/>
<path d="M0 0 C13.53 0 27.06 0 41 0 C41 0.33 41 0.66 41 1 C27.47 1 13.94 1 0 1 C0 0.67 0 0.34 0 0 Z " fill="#333187" transform="translate(1127,227)"/>
<path d="M0 0 C0.33 0 0.66 0 1 0 C1 12.87 1 25.74 1 39 C0.67 39 0.34 39 0 39 C0 26.13 0 13.26 0 0 Z " fill="#2A2C2B" transform="translate(885,472)"/>
<path d="M0 0 C0.33 0 0.66 0 1 0 C1 12.21 1 24.42 1 37 C0.67 37 0.34 37 0 37 C0 24.79 0 12.58 0 0 Z " fill="#2A2C2B" transform="translate(1077,473)"/>
<path d="M0 0 C2.97 0 5.94 0 9 0 C9 0.33 9 0.66 9 1 C6.03 1 3.06 1 0 1 C0 0.67 0 0.34 0 0 Z " fill="#2A2C2B" transform="translate(983,470)"/>
<path d="M0 0 C2.97 0 5.94 0 9 0 C9 0.33 9 0.66 9 1 C6.03 1 3.06 1 0 1 C0 0.67 0 0.34 0 0 Z " fill="#2A2C2B" transform="translate(956,470)"/>
<path d="M0 0 C2.97 0 5.94 0 9 0 C9 0.33 9 0.66 9 1 C6.03 1 3.06 1 0 1 C0 0.67 0 0.34 0 0 Z " fill="#2A2C2B" transform="translate(887,470)"/>
<path d="M0 0 C0.33 0 0.66 0 1 0 C1 2.64 1 5.28 1 8 C0.67 8 0.34 8 0 8 C0 5.36 0 2.72 0 0 Z " fill="#2A2C2B" transform="translate(705,503)"/>
<path d="M0 0 C2.64 0 5.28 0 8 0 C8 0.33 8 0.66 8 1 C5.36 1 2.72 1 0 1 C0 0.67 0 0.34 0 0 Z " fill="#2A2C2B" transform="translate(1080,470)"/>
<path d="M0 0 C2.64 0 5.28 0 8 0 C8 0.33 8 0.66 8 1 C5.36 1 2.72 1 0 1 C0 0.67 0 0.34 0 0 Z " fill="#2A2C2B" transform="translate(856,470)"/>
<path d="M0 0 C2.64 0 5.28 0 8 0 C8 0.33 8 0.66 8 1 C5.36 1 2.72 1 0 1 C0 0.67 0 0.34 0 0 Z " fill="#333187" transform="translate(974,335)"/>
<path d="M0 0 C0 0.99 0 1.98 0 3 C-0.99 3 -1.98 3 -3 3 C-2.01 2.01 -1.02 1.02 0 0 Z " fill="#121213" transform="translate(750,504)"/>
<path d="M0 0 C2.31 0 4.62 0 7 0 C7 0.33 7 0.66 7 1 C4.69 1 2.38 1 0 1 C0 0.67 0 0.34 0 0 Z " fill="#2A2C2B" transform="translate(767,470)"/>
<path d="M0 0 C2.31 0 4.62 0 7 0 C7 0.33 7 0.66 7 1 C4.69 1 2.38 1 0 1 C0 0.67 0 0.34 0 0 Z " fill="#2A2C2B" transform="translate(1047,469)"/>
<path d="M0 0 C0 0.99 0 1.98 0 3 C-0.99 3 -1.98 3 -3 3 C-2.01 2.01 -1.02 1.02 0 0 Z " fill="#15153B" transform="translate(998,383)"/>
<path d="M0 0 C1.65 0 3.3 0 5 0 C5 0.33 5 0.66 5 1 C3.35 1 1.7 1 0 1 C0 0.67 0 0.34 0 0 Z " fill="#2A2C2B" transform="translate(843,470)"/>
<path d="M0 0 C1 4 1 4 1 4 Z " fill="#2A2C2B" transform="translate(822,472)"/>
<path d="M0 0 C4 1 4 1 4 1 Z " fill="#2A2C2B" transform="translate(930,469)"/>
<path d="M0 0 C1 4 1 4 1 4 Z " fill="#2A2C2B" transform="translate(885,457)"/>
<path d="M0 0 C0.33 0.66 0.66 1.32 1 2 C0.34 1.67 -0.32 1.34 -1 1 C-0.67 0.67 -0.34 0.34 0 0 Z " fill="#0E0E0F" transform="translate(943,507)"/>
<path d="M0 0 C0.33 0.66 0.66 1.32 1 2 C0.34 1.67 -0.32 1.34 -1 1 C-0.67 0.67 -0.34 0.34 0 0 Z " fill="#11102E" transform="translate(99,380)"/>
<path d="M0 0 C0.33 0.66 0.66 1.32 1 2 C0.34 1.67 -0.32 1.34 -1 1 C-0.67 0.67 -0.34 0.34 0 0 Z " fill="#11102E" transform="translate(1178,275)"/>
<path d="M0 0 C0.33 0.66 0.66 1.32 1 2 C0.34 1.67 -0.32 1.34 -1 1 C-0.67 0.67 -0.34 0.34 0 0 Z " fill="#11102E" transform="translate(1183,270)"/>
<path d="M0 0 C2 1 2 1 2 1 Z " fill="#2A2C2B" transform="translate(1101,469)"/>
<path d="" fill="#000002" transform="translate(0,0)"/>
<path d="" fill="#000002" transform="translate(0,0)"/>
<path d="" fill="#000002" transform="translate(0,0)"/>
<path d="" fill="#000002" transform="translate(0,0)"/>
<path d="" fill="#2A2C2B" transform="translate(0,0)"/>
<path d="" fill="#2A2C2B" transform="translate(0,0)"/>
<path d="" fill="#2A2C2B" transform="translate(0,0)"/>
<path d="" fill="#000002" transform="translate(0,0)"/>
<path d="" fill="#000002" transform="translate(0,0)"/>
<path d="" fill="#000002" transform="translate(0,0)"/>
<path d="" fill="#000002" transform="translate(0,0)"/>
<path d="" fill="#000002" transform="translate(0,0)"/>
<path d="" fill="#000002" transform="translate(0,0)"/>
<path d="" fill="#000002" transform="translate(0,0)"/>
<path d="" fill="#000002" transform="translate(0,0)"/>
<path d="" fill="#000002" transform="translate(0,0)"/>
<path d="" fill="#000002" transform="translate(0,0)"/>
<path d="" fill="#000002" transform="translate(0,0)"/>
<path d="" fill="#333187" transform="translate(0,0)"/>
<path d="" fill="#333187" transform="translate(0,0)"/>
<path d="" fill="#333187" transform="translate(0,0)"/>
<path d="" fill="#333187" transform="translate(0,0)"/>
<path d="" fill="#000002" transform="translate(0,0)"/>
<path d="" fill="#000002" transform="translate(0,0)"/>
<path d="" fill="#000002" transform="translate(0,0)"/>
<path d="" fill="#333187" transform="translate(0,0)"/>
<path d="" fill="#333187" transform="translate(0,0)"/>
<path d="" fill="#333187" transform="translate(0,0)"/>
<path d="" fill="#333187" transform="translate(0,0)"/>
<path d="" fill="#333187" transform="translate(0,0)"/>
</svg>
